STARTFONT 2.1
FONT -FontForge-Monofett-Book-R-Normal--28-280-72-72-P-153-ISO10646-1
SIZE 28 72 72
FONTBOUNDINGBOX 18 31 0 -4
COMMENT "Generated by fontforge, http://fontforge.sourceforge.net"
COMMENT "Copyright (c) 2011 by vernon adams. All rights reserved."
STARTPROPERTIES 40
FOUNDRY "FontForge"
FAMILY_NAME "Monofett"
WEIGHT_NAME "Book"
SLANT "R"
SETWIDTH_NAME "Normal"
ADD_STYLE_NAME ""
PIXEL_SIZE 28
POINT_SIZE 280
RESOLUTION_X 72
RESOLUTION_Y 72
SPACING "P"
AVERAGE_WIDTH 153
CHARSET_REGISTRY "ISO10646"
CHARSET_ENCODING "1"
FONTNAME_REGISTRY ""
CHARSET_COLLECTIONS "ISO8859-2 ISO8859-9 ISO8859-4 ISO10646-1"
FONT_NAME "Monofett"
FACE_NAME "Monofett"
COPYRIGHT "Copyright (c) 2011 by vernon adams. All rights reserved."
FONT_VERSION "1.000"
FONT_ASCENT 22
FONT_DESCENT 6
UNDERLINE_POSITION -4
UNDERLINE_THICKNESS 1
X_HEIGHT 18
CAP_HEIGHT 18
RAW_ASCENT 799
RAW_DESCENT 200
NORM_SPACE 4
RELATIVE_WEIGHT 40
RELATIVE_SETWIDTH 50
SUPERSCRIPT_X 0
SUPERSCRIPT_Y 13
SUPERSCRIPT_SIZE 18
SUBSCRIPT_X 0
SUBSCRIPT_Y 3
SUBSCRIPT_SIZE 18
FIGURE_WIDTH 16
AVG_LOWERCASE_WIDTH 160
AVG_UPPERCASE_WIDTH 160
ENDPROPERTIES
CHARS 409
STARTCHAR uni000D
ENCODING 13
SWIDTH 144 0
DWIDTH 4 0
BBX 1 1 0 0
BITMAP
00
ENDCHAR
STARTCHAR space
ENCODING 32
SWIDTH 144 0
DWIDTH 4 0
BBX 1 1 0 0
BITMAP
00
ENDCHAR
STARTCHAR exclam
ENCODING 33
SWIDTH 424 0
DWIDTH 12 0
BBX 12 19 0 0
BITMAP
0600
3FC0
79E0
F9F0
F9F0
F9F0
F9F0
F9F0
FDF0
FFF0
FFF0
FFF0
F9F0
FFF0
FFF0
FFF0
7FE0
3FC0
1F80
ENDCHAR
STARTCHAR quotedbl
ENCODING 34
SWIDTH 424 0
DWIDTH 12 0
BBX 12 19 0 0
BITMAP
0600
3FC0
72E0
F2F0
F2F0
FFF0
FFF0
FFF0
FFF0
FFF0
FFF0
FFF0
FFF0
FFF0
FFF0
FFF0
7FE0
3FC0
1F80
ENDCHAR
STARTCHAR numbersign
ENCODING 35
SWIDTH 482 0
DWIDTH 14 0
BBX 14 19 0 0
BITMAP
0780
3FF0
7FF8
F978
F978
F03C
FB7C
FA7C
FA7C
F03C
F27C
F2FC
FFFC
FFFC
FFFC
FFF8
7FF8
3FF0
1FC0
ENDCHAR
STARTCHAR dollar
ENCODING 36
SWIDTH 578 0
DWIDTH 16 0
BBX 16 19 0 0
BITMAP
07F0
3FFC
7F7E
F80F
F36F
F37F
F37F
F81F
FF4F
FF6F
F36F
F00F
F81F
FF7F
FFFF
FFFF
7FFE
3FFE
1FF8
ENDCHAR
STARTCHAR percent
ENCODING 37
SWIDTH 578 0
DWIDTH 16 0
BBX 16 19 0 0
BITMAP
07F0
3FFC
63BE
E1BF
CD3F
E17F
E37F
FE7F
FE43
FE9B
FEDB
FCC3
FFFF
FFFF
FFFF
FFFF
7FFE
3FFE
1FF8
ENDCHAR
STARTCHAR ampersand
ENCODING 38
SWIDTH 578 0
DWIDTH 16 0
BBX 16 19 0 0
BITMAP
07F0
3FFC
781E
F9FF
FBFF
F9EF
FC07
FC07
F9EF
FBEF
F9EF
F80F
FC1F
FFFF
FFFF
FFFF
7FFE
3FFE
1FF8
ENDCHAR
STARTCHAR quotesingle
ENCODING 39
SWIDTH 424 0
DWIDTH 12 0
BBX 12 19 0 0
BITMAP
0600
3FC0
79E0
F9F0
F9F0
FFF0
FFF0
FFF0
FFF0
FFF0
FFF0
FFF0
FFF0
FFF0
FFF0
FFF0
7FE0
3FC0
1F80
ENDCHAR
STARTCHAR parenleft
ENCODING 40
SWIDTH 483 0
DWIDTH 14 0
BBX 14 19 0 0
BITMAP
0780
3E70
7878
FBF8
FBFC
FBFC
FBFC
FBFC
FBFC
FBFC
FBFC
FBFC
FBFC
F87C
FC7C
FFF8
7FF8
3FF0
1FC0
ENDCHAR
STARTCHAR parenright
ENCODING 41
SWIDTH 483 0
DWIDTH 14 0
BBX 14 19 0 0
BITMAP
0780
39F0
7878
FE78
FF7C
FF7C
FF7C
FF7C
FF7C
FF7C
FF7C
FF7C
FF7C
F87C
F9FC
FFF8
7FF8
3FF0
1FC0
ENDCHAR
STARTCHAR asterisk
ENCODING 42
SWIDTH 428 0
DWIDTH 12 0
BBX 12 19 0 0
BITMAP
0600
3FC0
7260
F8F0
E030
F8F0
FAF0
FA70
FFF0
FFF0
FFF0
FFF0
FFF0
FFF0
FFF0
FFF0
7FE0
3FC0
1F80
ENDCHAR
STARTCHAR plus
ENCODING 43
SWIDTH 428 0
DWIDTH 12 0
BBX 12 19 0 0
BITMAP
0600
39C0
79E0
F9F0
E070
E070
F9F0
F9F0
FFF0
FFF0
FFF0
FFF0
FFF0
FFF0
FFF0
FFF0
7FE0
3FC0
1F80
ENDCHAR
STARTCHAR comma
ENCODING 44
SWIDTH 428 0
DWIDTH 12 0
BBX 12 19 0 0
BITMAP
0600
3FC0
7FE0
FFF0
FFF0
FFF0
FFF0
FFF0
FFF0
FFF0
FFF0
F9F0
F9F0
FDF0
FFF0
FFF0
7FE0
3FC0
1F80
ENDCHAR
STARTCHAR hyphen
ENCODING 45
SWIDTH 428 0
DWIDTH 12 0
BBX 12 19 0 0
BITMAP
0600
3FC0
7FE0
FFF0
FFF0
E070
FFF0
FFF0
FFF0
FFF0
FFF0
FFF0
FFF0
FFF0
FFF0
FFF0
7FE0
3FC0
1F80
ENDCHAR
STARTCHAR period
ENCODING 46
SWIDTH 428 0
DWIDTH 12 0
BBX 12 19 0 0
BITMAP
0600
3FC0
7FE0
FFF0
FFF0
FFF0
FFF0
FFF0
FFF0
FFF0
FFF0
F9F0
F9F0
FFF0
FFF0
FFF0
7FE0
3FC0
1F80
ENDCHAR
STARTCHAR slash
ENCODING 47
SWIDTH 428 0
DWIDTH 12 0
BBX 12 19 0 0
BITMAP
0600
3FC0
7CE0
FDF0
FDF0
FDF0
F9F0
F9F0
F9F0
FBF0
FBF0
FBF0
F3F0
FFF0
FFF0
FFF0
7FE0
3FC0
1F80
ENDCHAR
STARTCHAR zero
ENCODING 48
SWIDTH 578 0
DWIDTH 16 0
BBX 16 19 0 0
BITMAP
07F0
3FFC
7806
F3E7
F3E7
F3E7
F3E7
F3E7
F3E7
F3E7
F3E7
F807
F80F
FFFF
FFFF
FFFF
7FFE
3FFE
1FF8
ENDCHAR
STARTCHAR one
ENCODING 49
SWIDTH 578 0
DWIDTH 16 0
BBX 16 19 0 0
BITMAP
07F0
3F7C
7C7E
FF7F
FF7F
FF7F
FF7F
FF7F
FF7F
FF7F
FF7F
FF7F
FF7F
FFFF
FFFF
FFFF
7FFE
3FFE
1FF8
ENDCHAR
STARTCHAR two
ENCODING 50
SWIDTH 578 0
DWIDTH 16 0
BBX 16 19 0 0
BITMAP
07F0
3FFC
780E
F3E7
FFE7
FFE7
FFEF
F80F
F3FF
F3FF
F3FF
F00F
F80F
FFFF
FFFF
FFFF
7FFE
3FFE
1FF8
ENDCHAR
STARTCHAR three
ENCODING 51
SWIDTH 578 0
DWIDTH 16 0
BBX 16 19 0 0
BITMAP
07F0
3FFC
700E
F7EF
FFEF
FFEF
FC0F
FC0F
FFEF
FFEF
F7EF
F00F
F80F
FFFF
FFFF
FFFF
7FFE
3FFE
1FF8
ENDCHAR
STARTCHAR four
ENCODING 52
SWIDTH 578 0
DWIDTH 16 0
BBX 16 19 0 0
BITMAP
07F0
3FFC
7BDE
FBDF
FBDF
FBDF
FBDF
FBDF
FBDF
FC07
FFDF
FFDF
FFDF
FFFF
FFFF
FFFF
7FFE
3FFE
1FF8
ENDCHAR
STARTCHAR five
ENCODING 53
SWIDTH 578 0
DWIDTH 16 0
BBX 16 19 0 0
BITMAP
07F0
3FFC
780E
FBFF
FBFF
FBFF
F80F
FBE7
FFE7
FFE7
FFE7
F807
FC0F
FFFF
FFFF
FFFF
7FFE
3FFE
1FF8
ENDCHAR
STARTCHAR six
ENCODING 54
SWIDTH 578 0
DWIDTH 16 0
BBX 16 19 0 0
BITMAP
07F0
3FFC
780E
FBFF
FBFF
FBFF
F807
FBF7
FBF7
FBF7
FBF7
F807
F80F
FFFF
FFFF
FFFF
7FFE
3FFE
1FF8
ENDCHAR
STARTCHAR seven
ENCODING 55
SWIDTH 578 0
DWIDTH 16 0
BBX 16 19 0 0
BITMAP
07F0
3FFC
7C0E
FFDF
FF9F
FF9F
FFBF
FF3F
FF3F
FF7F
FE7F
FE7F
FEFF
FFFF
FFFF
FFFF
7FFE
3FFE
1FF8
ENDCHAR
STARTCHAR eight
ENCODING 56
SWIDTH 578 0
DWIDTH 16 0
BBX 16 19 0 0
BITMAP
07F0
3FFC
7806
F3E7
F3E7
F3E7
F007
F80F
F3E7
F3E7
F3E7
F007
F80F
FFFF
FFFF
FFFF
7FFE
3FFE
1FF8
ENDCHAR
STARTCHAR nine
ENCODING 57
SWIDTH 578 0
DWIDTH 16 0
BBX 16 19 0 0
BITMAP
07F0
3FFC
700E
F3E7
F3E7
F3E7
F3E7
F007
FFE7
FFE7
FFE7
F807
F80F
FFFF
FFFF
FFFF
7FFE
3FFE
1FF8
ENDCHAR
STARTCHAR colon
ENCODING 58
SWIDTH 428 0
DWIDTH 12 0
BBX 12 19 0 0
BITMAP
0600
3FC0
7FE0
FFF0
FFF0
FFF0
FFF0
F9F0
F9F0
FFF0
FFF0
F9F0
F9F0
FFF0
FFF0
FFF0
7FE0
3FC0
1F80
ENDCHAR
STARTCHAR semicolon
ENCODING 59
SWIDTH 428 0
DWIDTH 12 0
BBX 12 19 0 0
BITMAP
0600
3FC0
7FE0
FFF0
FFF0
FFF0
FFF0
F9F0
F9F0
FFF0
FFF0
F9F0
F9F0
FDF0
FFF0
FFF0
7FE0
3FC0
1F80
ENDCHAR
STARTCHAR less
ENCODING 60
SWIDTH 482 0
DWIDTH 14 0
BBX 14 20 0 1
BITMAP
1FE0
7FF0
7FF8
FFF8
FFFC
FF7C
FEFC
FDFC
FBFC
F7FC
F7FC
FBFC
FDFC
FCFC
FE7C
FFF8
FFF8
7FF0
3FE0
0700
ENDCHAR
STARTCHAR equal
ENCODING 61
SWIDTH 482 0
DWIDTH 14 0
BBX 14 20 0 1
BITMAP
1FE0
3FF0
7FF8
FFF8
FFFC
FFFC
FFFC
FFFC
F03C
FFFC
FFFC
FFFC
FFFC
FFFC
FFFC
FFF8
FFF8
7FF0
3FE0
0F00
ENDCHAR
STARTCHAR greater
ENCODING 62
SWIDTH 482 0
DWIDTH 14 0
BBX 14 20 0 1
BITMAP
1FE0
3FF0
7FF8
FFF8
FFFC
FBFC
FDFC
FEFC
FE7C
FF7C
FFBC
FF7C
FEFC
FDFC
FBFC
FFF8
FFF8
7FF0
3FE0
0F00
ENDCHAR
STARTCHAR question
ENCODING 63
SWIDTH 578 0
DWIDTH 16 0
BBX 16 19 0 0
BITMAP
07F0
3FFC
7C0E
FBE7
FFE7
FFE7
FFE7
FF0F
FF7F
FF7F
FFFF
FF7F
FF7F
FFFF
FFFF
FFFF
7FFE
3FFE
1FF8
ENDCHAR
STARTCHAR at
ENCODING 64
SWIDTH 578 0
DWIDTH 16 0
BBX 16 19 0 0
BITMAP
07F0
3E1C
7006
E7F3
EC3B
CFDB
CFDB
CC1B
C9DB
E9DB
EC1B
EFE3
E7FF
F07F
FFFF
FFFF
7FFE
3FFE
1FF8
ENDCHAR
STARTCHAR A
ENCODING 65
SWIDTH 578 0
DWIDTH 16 0
BBX 16 19 0 0
BITMAP
07F0
3FFC
780E
FBEF
FBEF
FBEF
FBEF
F80F
F807
F3E7
F3E7
F3E7
F3E7
FFFF
FFFF
FFFF
7FFE
3FFE
1FF8
ENDCHAR
STARTCHAR B
ENCODING 66
SWIDTH 578 0
DWIDTH 16 0
BBX 16 19 0 0
BITMAP
07F0
3FFC
700E
F3EF
F3EF
F3EF
F01F
F00F
F3EF
F3EF
F3EF
F00F
F01F
FFFF
FFFF
FFFF
7FFE
3FFE
1FF8
ENDCHAR
STARTCHAR C
ENCODING 67
SWIDTH 578 0
DWIDTH 16 0
BBX 16 19 0 0
BITMAP
07F0
3FFC
701E
F3FF
F3FF
F3FF
F3FF
F3FF
F3FF
F3FF
F3FF
F01F
F80F
FFFF
FFFF
FFFF
7FFE
3FFE
1FF8
ENDCHAR
STARTCHAR D
ENCODING 68
SWIDTH 578 0
DWIDTH 16 0
BBX 16 19 0 0
BITMAP
07F0
3FFC
7006
F3F7
F3F7
F3F7
F3F7
F3F7
F3F7
F3F7
F3F7
F007
F00F
FFFF
FFFF
FFFF
7FFE
3FFE
1FF8
ENDCHAR
STARTCHAR E
ENCODING 69
SWIDTH 578 0
DWIDTH 16 0
BBX 16 19 0 0
BITMAP
07F0
3FFC
7C0E
FDFF
FDFF
FDFF
FC1F
FC1F
FDFF
FDFF
FDFF
FC0F
FC0F
FFFF
FFFF
FFFF
7FFE
3FFE
1FF8
ENDCHAR
STARTCHAR F
ENCODING 70
SWIDTH 578 0
DWIDTH 16 0
BBX 16 19 0 0
BITMAP
07F0
3FFC
780E
F9FF
F9FF
F9FF
F81F
F81F
F9FF
F9FF
F9FF
F9FF
F9FF
FFFF
FFFF
FFFF
7FFE
3FFE
1FF8
ENDCHAR
STARTCHAR G
ENCODING 71
SWIDTH 578 0
DWIDTH 16 0
BBX 16 19 0 0
BITMAP
07F0
3FFC
780E
FBFF
FBFF
FBFF
FBFF
FB87
FBF7
FBF7
FBF7
F807
FC0F
FFFF
FFFF
FFFF
7FFE
3FFE
1FF8
ENDCHAR
STARTCHAR H
ENCODING 72
SWIDTH 578 0
DWIDTH 16 0
BBX 16 19 0 0
BITMAP
07F0
3FFC
73F6
F3F7
F3F7
F3F7
F007
F007
F3F7
F3F7
F3F7
F3F7
F3F7
FFFF
FFFF
FFFF
7FFE
3FFE
1FF8
ENDCHAR
STARTCHAR I
ENCODING 73
SWIDTH 578 0
DWIDTH 16 0
BBX 16 19 0 0
BITMAP
07F0
3FFC
7806
FF3F
FF3F
FF3F
FF3F
FF3F
FF3F
FF3F
FF3F
F807
F807
FFFF
FFFF
FFFF
7FFE
3FFE
1FF8
ENDCHAR
STARTCHAR J
ENCODING 74
SWIDTH 578 0
DWIDTH 16 0
BBX 16 19 0 0
BITMAP
07F0
3FFC
7F9E
FF9F
FF9F
FF9F
FF9F
FF9F
FF9F
FF9F
FF9F
FC1F
FC3F
FFFF
FFFF
FFFF
7FFE
3FFE
1FF8
ENDCHAR
STARTCHAR K
ENCODING 75
SWIDTH 578 0
DWIDTH 16 0
BBX 16 19 0 0
BITMAP
07F8
3FF4
7DE6
FDCF
FD9F
FD3F
FD7F
FC7F
FD3F
FD9F
FDCF
FDE7
FDF7
FFFF
FFFF
FFFF
7FFE
3FFE
1FF8
ENDCHAR
STARTCHAR L
ENCODING 76
SWIDTH 578 0
DWIDTH 16 0
BBX 16 19 0 0
BITMAP
07F0
3FFC
7CFE
FCFF
FCFF
FCFF
FCFF
FCFF
FCFF
FCFF
FCFF
FC0F
FC0F
FFFF
FFFF
FFFF
7FFE
3FFE
1FF8
ENDCHAR
STARTCHAR M
ENCODING 77
SWIDTH 578 0
DWIDTH 16 0
BBX 16 19 0 0
BITMAP
07F0
3FFC
7086
F773
F773
F773
F773
F773
F773
F7F3
F7F3
F7F3
F7F3
FFFF
FFFF
FFFF
7FFE
3FFE
1FF8
ENDCHAR
STARTCHAR N
ENCODING 78
SWIDTH 578 0
DWIDTH 16 0
BBX 16 19 0 0
BITMAP
07F0
3FFC
7006
F3E7
F3E7
F3E7
F3E7
F3E7
F3E7
F3E7
F3E7
F3E7
F3E7
FFFF
FFFF
FFFF
7FFE
3FFE
1FF8
ENDCHAR
STARTCHAR O
ENCODING 79
SWIDTH 578 0
DWIDTH 16 0
BBX 16 19 0 0
BITMAP
07F0
3FFC
7806
F3F7
F3F7
F3F7
F3F7
F3F7
F3F7
F3F7
F3F7
F807
F80F
FFFF
FFFF
FFFF
7FFE
3FFE
1FF8
ENDCHAR
STARTCHAR P
ENCODING 80
SWIDTH 578 0
DWIDTH 16 0
BBX 16 19 0 0
BITMAP
07F0
3FFC
780E
F9E7
F9E7
F9E7
F9E7
F807
F80F
F9FF
F9FF
F9FF
F9FF
FFFF
FFFF
FFFF
7FFE
3FFE
1FF8
ENDCHAR
STARTCHAR Q
ENCODING 81
SWIDTH 578 0
DWIDTH 16 0
BBX 16 19 0 0
BITMAP
07F0
3FFC
7806
FBF7
F3F7
F3F7
F3F7
F3F7
F3F7
F3F7
F337
F887
F80F
FFDF
FFDF
FFFF
7FFE
3FFE
1FF8
ENDCHAR
STARTCHAR R
ENCODING 82
SWIDTH 578 0
DWIDTH 16 0
BBX 16 19 0 0
BITMAP
07F0
3FFC
780E
FBEF
FBEF
FBEF
FBCF
F83F
FBCF
FBEF
FBEF
FBEF
FBEF
FFFF
FFFF
FFFF
7FFE
3FFE
1FF8
ENDCHAR
STARTCHAR S
ENCODING 83
SWIDTH 578 0
DWIDTH 16 0
BBX 16 19 0 0
BITMAP
07F0
3FFC
780E
FBFF
FBFF
FBFF
F80F
FC07
FFE7
FFE7
FFE7
F807
F80F
FFFF
FFFF
FFFF
7FFE
3FFE
1FF8
ENDCHAR
STARTCHAR T
ENCODING 84
SWIDTH 578 0
DWIDTH 16 0
BBX 16 19 0 0
BITMAP
07F0
3FFC
7806
FF3F
FF3F
FF3F
FF3F
FF3F
FF3F
FF3F
FF3F
FF3F
FF3F
FFFF
FFFF
FFFF
7FFE
3FFE
1FF8
ENDCHAR
STARTCHAR U
ENCODING 85
SWIDTH 578 0
DWIDTH 16 0
BBX 16 19 0 0
BITMAP
07F0
3FFC
73E6
F3E7
F3E7
F3E7
F3E7
F3E7
F3E7
F3E7
F3E7
F807
F80F
FFFF
FFFF
FFFF
7FFE
3FFE
1FF8
ENDCHAR
STARTCHAR V
ENCODING 86
SWIDTH 578 0
DWIDTH 16 0
BBX 16 19 0 0
BITMAP
07F0
3FFC
73E6
FBE7
F9EF
F9CF
F9CF
FDDF
FCDF
FC9F
FE9F
FE3F
FF3F
FFFF
FFFF
FFFF
7FFE
3FFE
1FF8
ENDCHAR
STARTCHAR W
ENCODING 87
SWIDTH 578 0
DWIDTH 16 0
BBX 16 19 0 0
BITMAP
07F0
3FFC
6772
E773
E633
E637
F6B7
F6B7
F6B7
F4B7
F497
F087
F9CF
FFFF
FFFF
FFFF
7FFE
3FFE
1FF8
ENDCHAR
STARTCHAR X
ENCODING 88
SWIDTH 578 0
DWIDTH 16 0
BBX 16 19 0 0
BITMAP
07F0
3FFC
7BE6
F9EF
FCCF
FE9F
FE3F
FF3F
FE9F
FCDF
FDCF
F9E7
FBF7
FFFF
FFFF
FFFF
7FFE
3FFE
1FF8
ENDCHAR
STARTCHAR Y
ENCODING 89
SWIDTH 578 0
DWIDTH 16 0
BBX 16 19 0 0
BITMAP
07F0
3FFC
79EE
F9CF
FDCF
FCDF
FE9F
FEBF
FF3F
FF7F
FF7F
FF7F
FF7F
FFFF
FFFF
FFFF
7FFE
3FFE
1FF8
ENDCHAR
STARTCHAR Z
ENCODING 90
SWIDTH 578 0
DWIDTH 16 0
BBX 16 19 0 0
BITMAP
07F0
3FFC
780E
FFDF
FF9F
FFBF
FF3F
FE7F
FE7F
FCFF
FDFF
F80F
F80F
FFFF
FFFF
FFFF
7FFE
3FFE
1FF8
ENDCHAR
STARTCHAR bracketleft
ENCODING 91
SWIDTH 484 0
DWIDTH 14 0
BBX 14 19 0 0
BITMAP
07C0
3CF0
7CF8
FDF8
FDFC
FDFC
FDFC
FDFC
FDFC
FDFC
FDFC
FDFC
FDFC
FCFC
FFFC
FFF8
7FF8
3FF0
1FC0
ENDCHAR
STARTCHAR backslash
ENCODING 92
SWIDTH 516 0
DWIDTH 14 0
BBX 15 19 0 0
BITMAP
07C0
3FF0
7DFC
FCFC
FCFC
FCFE
FEFE
FEFE
FEFE
FE7E
FE7E
FE7E
FF7E
FFFE
FFFC
FFFC
7FFC
3FF8
1FE0
ENDCHAR
STARTCHAR bracketright
ENCODING 93
SWIDTH 484 0
DWIDTH 14 0
BBX 14 19 0 0
BITMAP
07C0
3CF0
7CF8
FCF8
FCFC
FCFC
FCFC
FCFC
FCFC
FCFC
FCFC
FCFC
FCFC
FCFC
FFFC
FFF8
7FF8
3FF0
1FC0
ENDCHAR
STARTCHAR asciicircum
ENCODING 94
SWIDTH 355 0
DWIDTH 10 0
BBX 10 10 0 7
BITMAP
0C00
3F00
3F00
7380
7B80
ED80
EDC0
FFC0
FFC0
7F80
ENDCHAR
STARTCHAR underscore
ENCODING 95
SWIDTH 428 0
DWIDTH 12 0
BBX 12 19 0 0
BITMAP
0600
3FC0
7FE0
FFF0
FFF0
FFF0
FFF0
FFF0
FFF0
FFF0
FFF0
FFF0
FFF0
E070
FFF0
FFF0
7FE0
3FC0
1F80
ENDCHAR
STARTCHAR grave
ENCODING 96
SWIDTH 308 0
DWIDTH 9 0
BBX 9 9 0 0
BITMAP
7E00
FE00
E700
F700
7700
7B80
3B80
3F00
1E00
ENDCHAR
STARTCHAR a
ENCODING 97
SWIDTH 578 0
DWIDTH 16 0
BBX 16 19 0 0
BITMAP
07F0
3FFC
780E
FFCF
FFEF
FFEF
FFEF
F80F
F3EF
F7EF
F3EF
F00F
F80F
FFFF
FFFF
FFFF
7FFE
3FFE
1FF8
ENDCHAR
STARTCHAR b
ENCODING 98
SWIDTH 578 0
DWIDTH 16 0
BBX 16 19 0 0
BITMAP
07F0
3FFC
700E
F3EF
F3EF
F3EF
F01F
F00F
F3EF
F3EF
F3EF
F00F
F01F
FFFF
FFFF
FFFF
7FFE
3FFE
1FF8
ENDCHAR
STARTCHAR c
ENCODING 99
SWIDTH 578 0
DWIDTH 16 0
BBX 16 19 0 0
BITMAP
07F0
3FFC
701E
F3FF
F3FF
F3FF
F3FF
F3FF
F3FF
F3FF
F3FF
F01F
F80F
FFFF
FFFF
FFFF
7FFE
3FFE
1FF8
ENDCHAR
STARTCHAR d
ENCODING 100
SWIDTH 578 0
DWIDTH 16 0
BBX 16 19 0 0
BITMAP
07F0
3FFC
7006
F3F7
F3F7
F3F7
F3F7
F3F7
F3F7
F3F7
F3F7
F007
F00F
FFFF
FFFF
FFFF
7FFE
3FFE
1FF8
ENDCHAR
STARTCHAR e
ENCODING 101
SWIDTH 578 0
DWIDTH 16 0
BBX 16 19 0 0
BITMAP
07F0
3FFC
700E
F3CF
F3EF
F3EF
F00F
F3FF
F3FF
F3FF
F3FF
F81F
FFFF
FFFF
FFFF
FFFF
7FFE
3FFE
1FF8
ENDCHAR
STARTCHAR f
ENCODING 102
SWIDTH 578 0
DWIDTH 16 0
BBX 16 19 0 0
BITMAP
07F0
3FFC
780E
F9FF
F9FF
F9FF
F81F
F81F
F9FF
F9FF
F9FF
F9FF
F9FF
FFFF
FFFF
FFFF
7FFE
3FFE
1FF8
ENDCHAR
STARTCHAR g
ENCODING 103
SWIDTH 578 0
DWIDTH 16 0
BBX 16 19 0 0
BITMAP
07F0
3FFC
780E
FBFF
FBFF
FBFF
FBFF
FB87
FBF7
FBF7
FBF7
F807
FC0F
FFFF
FFFF
FFFF
7FFE
3FFE
1FF8
ENDCHAR
STARTCHAR h
ENCODING 104
SWIDTH 578 0
DWIDTH 16 0
BBX 16 19 0 0
BITMAP
07F0
3FFC
73F6
F3F7
F3F7
F3F7
F007
F007
F3F7
F3F7
F3F7
F3F7
F3F7
FFFF
FFFF
FFFF
7FFE
3FFE
1FF8
ENDCHAR
STARTCHAR i
ENCODING 105
SWIDTH 578 0
DWIDTH 16 0
BBX 16 19 0 0
BITMAP
07F0
3FFC
7806
FF3F
FF3F
FF3F
FF3F
FF3F
FF3F
FF3F
FF3F
F807
F807
FFFF
FFFF
FFFF
7FFE
3FFE
1FF8
ENDCHAR
STARTCHAR j
ENCODING 106
SWIDTH 578 0
DWIDTH 16 0
BBX 16 19 0 0
BITMAP
07F0
3FFC
7F9E
FF9F
FF9F
FF9F
FF9F
FF9F
FF9F
FF9F
FF9F
FC1F
FC3F
FFFF
FFFF
FFFF
7FFE
3FFE
1FF8
ENDCHAR
STARTCHAR k
ENCODING 107
SWIDTH 578 0
DWIDTH 16 0
BBX 16 19 0 0
BITMAP
07F8
3FF4
7DE6
FDCF
FD9F
FD3F
FD7F
FC7F
FD3F
FD9F
FDCF
FDE7
FDF7
FFFF
FFFF
FFFF
7FFE
3FFE
1FF8
ENDCHAR
STARTCHAR l
ENCODING 108
SWIDTH 578 0
DWIDTH 16 0
BBX 16 19 0 0
BITMAP
07F0
3FFC
7CFE
FCFF
FCFF
FCFF
FCFF
FCFF
FCFF
FCFF
FCFF
FC0F
FC0F
FFFF
FFFF
FFFF
7FFE
3FFE
1FF8
ENDCHAR
STARTCHAR m
ENCODING 109
SWIDTH 578 0
DWIDTH 16 0
BBX 16 19 0 0
BITMAP
07F0
3FFC
7086
F773
F773
F773
F773
F773
F773
F7F3
F7F3
F7F3
F7F3
FFFF
FFFF
FFFF
7FFE
3FFE
1FF8
ENDCHAR
STARTCHAR n
ENCODING 110
SWIDTH 578 0
DWIDTH 16 0
BBX 16 19 0 0
BITMAP
07F0
3FFC
7006
F3E7
F3E7
F3E7
F3E7
F3E7
F3E7
F3E7
F3E7
F3E7
F3E7
FFFF
FFFF
FFFF
7FFE
3FFE
1FF8
ENDCHAR
STARTCHAR o
ENCODING 111
SWIDTH 578 0
DWIDTH 16 0
BBX 16 19 0 0
BITMAP
07F0
3FFC
7806
F3F7
F3F7
F3F7
F3F7
F3F7
F3F7
F3F7
F3F7
F807
F80F
FFFF
FFFF
FFFF
7FFE
3FFE
1FF8
ENDCHAR
STARTCHAR p
ENCODING 112
SWIDTH 578 0
DWIDTH 16 0
BBX 16 19 0 0
BITMAP
07F0
3FFC
780E
F9E7
F9E7
F9E7
F9E7
F807
F80F
F9FF
F9FF
F9FF
F9FF
FFFF
FFFF
FFFF
7FFE
3FFE
1FF8
ENDCHAR
STARTCHAR q
ENCODING 113
SWIDTH 578 0
DWIDTH 16 0
BBX 16 19 0 0
BITMAP
07F0
3FFC
7806
FBF7
F3F7
F3F7
F3F7
F3F7
F3F7
F3F7
F337
F887
F80F
FFDF
FFDF
FFFF
7FFE
3FFE
1FF8
ENDCHAR
STARTCHAR r
ENCODING 114
SWIDTH 578 0
DWIDTH 16 0
BBX 16 19 0 0
BITMAP
07F0
3FFC
780E
FBEF
FBEF
FBEF
FBCF
F83F
FBCF
FBEF
FBEF
FBEF
FBEF
FFFF
FFFF
FFFF
7FFE
3FFE
1FF8
ENDCHAR
STARTCHAR s
ENCODING 115
SWIDTH 578 0
DWIDTH 16 0
BBX 16 19 0 0
BITMAP
07F0
3FFC
780E
FBFF
FBFF
FBFF
F80F
FC07
FFE7
FFE7
FFE7
F807
F80F
FFFF
FFFF
FFFF
7FFE
3FFE
1FF8
ENDCHAR
STARTCHAR t
ENCODING 116
SWIDTH 578 0
DWIDTH 16 0
BBX 16 19 0 0
BITMAP
07F0
3FFC
7806
FF3F
FF3F
FF3F
FF3F
FF3F
FF3F
FF3F
FF3F
FF3F
FF3F
FFFF
FFFF
FFFF
7FFE
3FFE
1FF8
ENDCHAR
STARTCHAR u
ENCODING 117
SWIDTH 578 0
DWIDTH 16 0
BBX 16 19 0 0
BITMAP
07F0
3FFC
73E6
F3E7
F3E7
F3E7
F3E7
F3E7
F3E7
F3E7
F3E7
F807
F80F
FFFF
FFFF
FFFF
7FFE
3FFE
1FF8
ENDCHAR
STARTCHAR v
ENCODING 118
SWIDTH 578 0
DWIDTH 16 0
BBX 16 19 0 0
BITMAP
07F0
3FFC
73E6
FBE7
F9EF
F9CF
F9CF
FDDF
FCDF
FC9F
FE9F
FE3F
FF3F
FFFF
FFFF
FFFF
7FFE
3FFE
1FF8
ENDCHAR
STARTCHAR w
ENCODING 119
SWIDTH 578 0
DWIDTH 16 0
BBX 16 19 0 0
BITMAP
07F0
3FFC
6772
E773
E633
E637
F6B7
F6B7
F6B7
F4B7
F497
F087
F9CF
FFFF
FFFF
FFFF
7FFE
3FFE
1FF8
ENDCHAR
STARTCHAR x
ENCODING 120
SWIDTH 578 0
DWIDTH 16 0
BBX 16 19 0 0
BITMAP
07F0
3FFC
7BE6
F9EF
FCCF
FE9F
FE3F
FF3F
FE9F
FCDF
FDCF
F9E7
FBF7
FFFF
FFFF
FFFF
7FFE
3FFE
1FF8
ENDCHAR
STARTCHAR y
ENCODING 121
SWIDTH 578 0
DWIDTH 16 0
BBX 16 19 0 0
BITMAP
07F0
3FFC
79EE
F9CF
FDCF
FCDF
FE9F
FEBF
FF3F
FF7F
FF7F
FF7F
FF7F
FFFF
FFFF
FFFF
7FFE
3FFE
1FF8
ENDCHAR
STARTCHAR z
ENCODING 122
SWIDTH 578 0
DWIDTH 16 0
BBX 16 19 0 0
BITMAP
07F0
3FFC
780E
FFDF
FF9F
FFBF
FF3F
FE7F
FE7F
FCFF
FDFF
F80F
F80F
FFFF
FFFF
FFFF
7FFE
3FFE
1FF8
ENDCHAR
STARTCHAR braceleft
ENCODING 123
SWIDTH 484 0
DWIDTH 14 0
BBX 14 19 0 0
BITMAP
07C0
3C70
7878
FBF8
FBFC
FBFC
FBFC
C3FC
F3FC
FBFC
FBFC
FBFC
F9FC
F87C
FFFC
FFF8
7FF8
3FF0
1FC0
ENDCHAR
STARTCHAR bar
ENCODING 124
SWIDTH 484 0
DWIDTH 14 0
BBX 14 19 0 0
BITMAP
05C0
3DF0
7DF8
FDF8
FDFC
FDFC
FDFC
FDFC
FDFC
FDFC
FDFC
FDFC
FDFC
FDFC
FFFC
FFF8
7FF8
3FF0
1FC0
ENDCHAR
STARTCHAR braceright
ENCODING 125
SWIDTH 484 0
DWIDTH 14 0
BBX 14 19 0 0
BITMAP
07C0
38F0
78F8
FE78
FE7C
FE7C
FE7C
FF1C
FE7C
FE7C
FE7C
FE7C
FE7C
F8FC
FFFC
FFF8
7FF8
3FF0
1FC0
ENDCHAR
STARTCHAR asciitilde
ENCODING 126
SWIDTH 578 0
DWIDTH 16 0
BBX 16 19 0 0
BITMAP
07F0
3FFC
7FFE
FFFF
FFEF
F86F
F30F
FFFF
FFFF
FFFF
FFFF
FFFF
FFFF
FFFF
FFFF
FFFF
7FFE
3FFE
1FF8
ENDCHAR
STARTCHAR uni00A0
ENCODING 160
SWIDTH 151 0
DWIDTH 4 0
BBX 1 1 0 0
BITMAP
00
ENDCHAR
STARTCHAR exclamdown
ENCODING 161
SWIDTH 424 0
DWIDTH 12 0
BBX 12 19 0 0
BITMAP
0600
3FC0
79E0
FFF0
FDF0
FDF0
FDF0
FDF0
FDF0
FDF0
FDF0
FDF0
FDF0
FFF0
FFF0
FFF0
7FE0
3FC0
1F80
ENDCHAR
STARTCHAR cent
ENCODING 162
SWIDTH 578 0
DWIDTH 16 0
BBX 16 19 0 0
BITMAP
07F0
3F7C
7F7E
FC1F
F97F
FB7F
FB7F
FB7F
FB7F
FB7F
F97F
F81F
FF7F
FF7F
FFFF
FFFF
7FFE
3FFE
1FF8
ENDCHAR
STARTCHAR sterling
ENCODING 163
SWIDTH 578 0
DWIDTH 16 0
BBX 16 19 0 0
BITMAP
07F0
3FFC
7C1E
FDCF
FDCF
FDFF
FDFF
F81F
FDFF
FDFF
FDFF
FC0F
FC0F
FFFF
FFFF
FFFF
7FFE
3FFE
1FF8
ENDCHAR
STARTCHAR currency
ENCODING 164
SWIDTH 578 0
DWIDTH 16 0
BBX 16 19 0 0
BITMAP
07F0
3FFC
73E6
F80F
F9EF
F9EF
F9EF
F9EF
F9CF
F80F
FBFF
FFFF
FFFF
FFFF
FFFF
FFFF
7FFE
3FFE
1FF8
ENDCHAR
STARTCHAR yen
ENCODING 165
SWIDTH 578 0
DWIDTH 16 0
BBX 16 19 0 0
BITMAP
07F0
3FFC
7BCE
F9CF
F9DF
FD9F
FCBF
FEBF
FC5F
FF7F
FC1F
FF7F
FF7F
FFFF
FFFF
FFFF
7FFE
3FFE
1FF8
ENDCHAR
STARTCHAR brokenbar
ENCODING 166
SWIDTH 484 0
DWIDTH 14 0
BBX 14 19 0 0
BITMAP
07C0
3FF0
7CF8
FCF8
FCFC
FCFC
FFFC
FFFC
FCFC
FCFC
FCFC
FCFC
FCFC
FFFC
FFFC
FFF8
7FF8
3FF0
1FC0
ENDCHAR
STARTCHAR section
ENCODING 167
SWIDTH 578 0
DWIDTH 16 0
BBX 16 19 0 0
BITMAP
07F0
3FFC
780E
FBFF
FBFF
F83F
FD9F
FDDF
FDDF
FE1F
FFEF
FFEF
FFEF
F81F
FFFF
FFFF
7FFE
3FFE
1FF8
ENDCHAR
STARTCHAR dieresis
ENCODING 168
SWIDTH 388 0
DWIDTH 11 0
BBX 11 7 0 1
BITMAP
1F00
7FC0
FFE0
ECE0
ECE0
FFE0
7FC0
ENDCHAR
STARTCHAR copyright
ENCODING 169
SWIDTH 578 0
DWIDTH 16 0
BBX 16 19 0 0
BITMAP
07F0
3F7C
788E
F7F7
EC1B
DDFB
DDFD
DDFD
DDFD
DDFD
CDFB
EC1B
F7F7
F80F
FFFF
FFFF
7FFE
3FFE
1FF8
ENDCHAR
STARTCHAR ordfeminine
ENCODING 170
SWIDTH 578 0
DWIDTH 16 0
BBX 16 19 0 0
BITMAP
07F0
3FFC
7C0E
FFCF
FFEF
FFEF
F80F
F9EF
FBEF
F80F
FC1F
FFFF
FFFF
FFFF
FFFF
FFFF
7FFE
3FFE
1FF8
ENDCHAR
STARTCHAR guillemotleft
ENCODING 171
SWIDTH 578 0
DWIDTH 16 0
BBX 16 19 0 0
BITMAP
07F0
3FFC
7FFE
FECF
FCDF
FDBF
FB7F
F67F
F6FF
FB7F
FDBF
FDDF
FEDF
FFFF
FFFF
FFFF
7FFE
3FFE
1FF8
ENDCHAR
STARTCHAR uni00AD
ENCODING 173
SWIDTH 428 0
DWIDTH 12 0
BBX 12 19 0 0
BITMAP
0600
3FC0
7FE0
FFF0
FFF0
E070
FFF0
FFF0
FFF0
FFF0
FFF0
FFF0
FFF0
FFF0
FFF0
FFF0
7FE0
3FC0
1F80
ENDCHAR
STARTCHAR registered
ENCODING 174
SWIDTH 578 0
DWIDTH 16 0
BBX 16 19 0 0
BITMAP
07F0
3F7C
788E
F7F7
EC1B
DDDB
DDDD
DDBD
DC1D
DDDD
CDDB
EDDB
F7F7
F80F
FFFF
FFFF
7FFE
3FFE
1FF8
ENDCHAR
STARTCHAR macron
ENCODING 175
SWIDTH 428 0
DWIDTH 12 0
BBX 12 8 0 0
BITMAP
1F80
7FE0
FFF0
FFF0
E0F0
FFF0
7FE0
3FC0
ENDCHAR
STARTCHAR degree
ENCODING 176
SWIDTH 428 0
DWIDTH 12 0
BBX 12 19 0 0
BITMAP
0600
3FC0
70E0
F6F0
F6F0
F0F0
FFF0
FFF0
FFF0
FFF0
FFF0
FFF0
FFF0
FFF0
FFF0
FFF0
7FE0
3FC0
1F80
ENDCHAR
STARTCHAR plusminus
ENCODING 177
SWIDTH 428 0
DWIDTH 12 0
BBX 12 19 0 0
BITMAP
0600
39C0
79E0
F9F0
E070
E070
F9F0
F9F0
FFF0
E070
E070
FFF0
FFF0
FFF0
FFF0
FFF0
7FE0
3FC0
1F80
ENDCHAR
STARTCHAR uni00B2
ENCODING 178
SWIDTH 578 0
DWIDTH 16 0
BBX 16 19 0 0
BITMAP
07F0
3FFC
7C1E
F9DF
FF1F
FC3F
F9FF
F81F
FC1F
FFFF
FFFF
FFFF
FFFF
FFFF
FFFF
FFFF
7FFE
3FFE
1FF8
ENDCHAR
STARTCHAR uni00B3
ENCODING 179
SWIDTH 578 0
DWIDTH 16 0
BBX 16 19 0 0
BITMAP
07F0
3FFC
7C0E
FDEF
FF0F
FF0F
FFEF
FC0F
FC1F
FFFF
FFFF
FFFF
FFFF
FFFF
FFFF
FFFF
7FFE
3FFE
1FF8
ENDCHAR
STARTCHAR acute
ENCODING 180
SWIDTH 308 0
DWIDTH 9 0
BBX 9 9 0 0
BITMAP
3F00
7F80
7780
7700
E700
EE00
EE00
FC00
7C00
ENDCHAR
STARTCHAR uni00B5
ENCODING 181
SWIDTH 578 0
DWIDTH 16 0
BBX 16 19 0 0
BITMAP
07F0
3FFC
77E6
F7E7
F7E7
F7E7
F7E7
F7E7
F7E7
F7E7
F7E7
F00F
F00F
F7FF
F7FF
FFFF
7FFE
3FFE
1FF8
ENDCHAR
STARTCHAR paragraph
ENCODING 182
SWIDTH 578 0
DWIDTH 16 0
BBX 16 19 0 0
BITMAP
07F0
3FFC
780E
F02F
F02F
F02F
F82F
FC2F
FFAF
FFAF
FFAF
FFAF
FFFF
FFFF
FFFF
FFFF
7FFE
3FFE
1FF8
ENDCHAR
STARTCHAR periodcentered
ENCODING 183
SWIDTH 428 0
DWIDTH 12 0
BBX 12 19 0 0
BITMAP
0600
3FC0
7FE0
FFF0
FFF0
F9F0
F9F0
FFF0
FFF0
FFF0
FFF0
FFF0
FFF0
FFF0
FFF0
FFF0
7FE0
3FC0
1F80
ENDCHAR
STARTCHAR cedilla
ENCODING 184
SWIDTH 101 0
DWIDTH 3 0
BBX 3 4 0 -4
BITMAP
60
E0
80
E0
ENDCHAR
STARTCHAR uni00B9
ENCODING 185
SWIDTH 578 0
DWIDTH 16 0
BBX 16 19 0 0
BITMAP
07F0
3F7C
7C7E
FF7F
FF7F
FF7F
FF7F
FF7F
FF7F
FFFF
FFFF
FFFF
FFFF
FFFF
FFFF
FFFF
7FFE
3FFE
1FF8
ENDCHAR
STARTCHAR ordmasculine
ENCODING 186
SWIDTH 578 0
DWIDTH 16 0
BBX 16 19 0 0
BITMAP
07F0
3FFC
780E
FBE7
FBE7
FBE7
FBE7
FBE7
FBE7
F807
FC0F
FFFF
FFFF
FFFF
FFFF
FFFF
7FFE
3FFE
1FF8
ENDCHAR
STARTCHAR guillemotright
ENCODING 187
SWIDTH 578 0
DWIDTH 16 0
BBX 16 19 0 0
BITMAP
07F0
3FFC
7FFE
FB7F
FBBF
FDBF
FEDF
FF6F
FF6F
FEDF
FD9F
FDBF
FB7F
FFFF
FFFF
FFFF
7FFE
3FFE
1FF8
ENDCHAR
STARTCHAR onequarter
ENCODING 188
SWIDTH 578 0
DWIDTH 16 0
BBX 16 19 0 0
BITMAP
07F0
37FC
477E
F67F
F67F
F6FF
F6B3
F4B3
F4B3
FDB3
FD93
F981
F9F3
FFF3
FFFF
FFFF
7FFE
3FFE
1FF8
ENDCHAR
STARTCHAR onehalf
ENCODING 189
SWIDTH 578 0
DWIDTH 16 0
BBX 16 19 0 0
BITMAP
07F0
37FC
477E
F67F
F67F
F6E7
F681
F4B9
F4E1
FD83
FDBF
F983
F983
FFFF
FFFF
FFFF
7FFE
3FFE
1FF8
ENDCHAR
STARTCHAR threequarters
ENCODING 190
SWIDTH 578 0
DWIDTH 16 0
BBX 16 19 0 0
BITMAP
07F0
37FC
477E
F67F
F67F
F6E7
F681
F4BD
F4E1
FDE1
FDFD
F981
F9C3
FFFF
FFFF
FFFF
7FFE
3FFE
1FF8
ENDCHAR
STARTCHAR questiondown
ENCODING 191
SWIDTH 578 0
DWIDTH 16 0
BBX 16 19 0 0
BITMAP
07F0
3F3C
7F3E
FFFF
FFBF
FFBF
FC3F
FBFF
FBFF
FBFF
FBEF
F80F
FFFF
FFFF
FFFF
FFFF
7FFE
3FFE
1FF8
ENDCHAR
STARTCHAR Agrave
ENCODING 192
SWIDTH 578 0
DWIDTH 16 0
BBX 16 26 0 0
BITMAP
0F80
1FC0
1DC0
1CE0
1EE0
0EE0
0760
07F0
3FFC
780E
FBEF
FBEF
FBEF
FBEF
F80F
F807
F3E7
F3E7
F3E7
F3E7
FFFF
FFFF
FFFF
7FFE
3FFE
1FF8
ENDCHAR
STARTCHAR Aacute
ENCODING 193
SWIDTH 578 0
DWIDTH 16 0
BBX 16 26 0 0
BITMAP
01F8
03FC
039C
03BC
0738
0770
0770
07F0
3FFC
780E
FBEF
FBEF
FBEF
FBEF
F80F
F807
F3E7
F3E7
F3E7
F3E7
FFFF
FFFF
FFFF
7FFE
3FFE
1FF8
ENDCHAR
STARTCHAR Acircumflex
ENCODING 194
SWIDTH 578 0
DWIDTH 16 0
BBX 16 27 0 0
BITMAP
03C0
03E0
07F0
07F0
0EB8
0EB8
0D98
1FF8
0FF8
3FFC
780E
FBEF
FBEF
FBEF
FBEF
F80F
F807
F3E7
F3E7
F3E7
F3E7
FFFF
FFFF
FFFF
7FFE
3FFE
1FF8
ENDCHAR
STARTCHAR Atilde
ENCODING 195
SWIDTH 578 0
DWIDTH 16 0
BBX 16 27 0 0
BITMAP
03E0
0FF8
1FFC
1FFC
3FFE
3CDE
191C
1FFC
0FF8
3FFC
780E
FBEF
FBEF
FBEF
FBEF
F80F
F807
F3E7
F3E7
F3E7
F3E7
FFFF
FFFF
FFFF
7FFE
3FFE
1FF8
ENDCHAR
STARTCHAR Adieresis
ENCODING 196
SWIDTH 578 0
DWIDTH 16 0
BBX 16 25 0 0
BITMAP
03E0
0FF8
1FFC
1C9C
1C9C
1FFC
0FF8
3FFC
780E
FBEF
FBEF
FBEF
FBEF
F80F
F807
F3E7
F3E7
F3E7
F3E7
FFFF
FFFF
FFFF
7FFE
3FFE
1FF8
ENDCHAR
STARTCHAR Aring
ENCODING 197
SWIDTH 578 0
DWIDTH 16 0
BBX 16 27 0 0
BITMAP
0180
07F0
0FF8
0C38
1DDC
1DDC
1C3C
0FF8
0FF8
3FFC
780E
FBEF
FBEF
FBEF
FBEF
F80F
F807
F3E7
F3E7
F3E7
F3E7
FFFF
FFFF
FFFF
7FFE
3FFE
1FF8
ENDCHAR
STARTCHAR AE
ENCODING 198
SWIDTH 578 0
DWIDTH 16 0
BBX 16 19 0 0
BITMAP
07F0
3E0C
7806
F37F
F37F
F37F
F307
F707
F77F
F07F
F07F
F707
E707
FFFF
FFFF
FFFF
7FFE
3FFE
1FF8
ENDCHAR
STARTCHAR Ccedilla
ENCODING 199
SWIDTH 578 0
DWIDTH 16 0
BBX 16 19 0 0
BITMAP
07F0
3FFC
701E
F3FF
F3FF
F3FF
F3FF
F3FF
F3FF
F3FF
F3FF
F01F
F80F
FF7F
FCFF
FDFF
7E7E
3FFE
1FF8
ENDCHAR
STARTCHAR Egrave
ENCODING 200
SWIDTH 578 0
DWIDTH 16 0
BBX 16 26 0 0
BITMAP
0FC0
1FC0
1CE0
1EE0
0EE0
0E60
0770
07F0
3FFC
7C0E
FDFF
FDFF
FDFF
FC1F
FC1F
FDFF
FDFF
FDFF
FC0F
FC0F
FFFF
FFFF
FFFF
7FFE
3FFE
1FF8
ENDCHAR
STARTCHAR Eacute
ENCODING 201
SWIDTH 578 0
DWIDTH 16 0
BBX 16 26 0 0
BITMAP
01F8
01FC
039C
03BC
03B8
0778
0770
07F0
3FFC
7C0E
FDFF
FDFF
FDFF
FC1F
FC1F
FDFF
FDFF
FDFF
FC0F
FC0F
FFFF
FFFF
FFFF
7FFE
3FFE
1FF8
ENDCHAR
STARTCHAR Ecircumflex
ENCODING 202
SWIDTH 578 0
DWIDTH 16 0
BBX 16 27 0 0
BITMAP
01E0
03F0
07F0
07B8
0EB8
0EB8
0EDC
0FFC
0FFC
3FFC
7C0E
FDFF
FDFF
FDFF
FC1F
FC1F
FDFF
FDFF
FDFF
FC0F
FC0F
FFFF
FFFF
FFFF
7FFE
3FFE
1FF8
ENDCHAR
STARTCHAR Edieresis
ENCODING 203
SWIDTH 578 0
DWIDTH 16 0
BBX 16 25 0 0
BITMAP
03F0
0FF8
0FFC
1CDC
1CDC
0FFC
0FF8
3FFC
7C0E
FDFF
FDFF
FDFF
FC1F
FC1F
FDFF
FDFF
FDFF
FC0F
FC0F
FFFF
FFFF
FFFF
7FFE
3FFE
1FF8
ENDCHAR
STARTCHAR Igrave
ENCODING 204
SWIDTH 578 0
DWIDTH 16 0
BBX 16 26 0 0
BITMAP
0FC0
1FC0
1CE0
1EE0
0EE0
0F70
0770
07F0
3FFC
7806
FF3F
FF3F
FF3F
FF3F
FF3F
FF3F
FF3F
FF3F
F807
F807
FFFF
FFFF
FFFF
7FFE
3FFE
1FF8
ENDCHAR
STARTCHAR Iacute
ENCODING 205
SWIDTH 578 0
DWIDTH 16 0
BBX 16 26 0 0
BITMAP
01F8
01FC
039C
03BC
03B8
0338
0770
07F0
3FFC
7806
FF3F
FF3F
FF3F
FF3F
FF3F
FF3F
FF3F
FF3F
F807
F807
FFFF
FFFF
FFFF
7FFE
3FFE
1FF8
ENDCHAR
STARTCHAR Icircumflex
ENCODING 206
SWIDTH 578 0
DWIDTH 16 0
BBX 16 27 0 0
BITMAP
01E0
03F0
07F0
07B8
07B8
0ED8
0EDC
0FFC
0FFC
3FFC
7806
FF3F
FF3F
FF3F
FF3F
FF3F
FF3F
FF3F
FF3F
F807
F807
FFFF
FFFF
FFFF
7FFE
3FFE
1FF8
ENDCHAR
STARTCHAR Idieresis
ENCODING 207
SWIDTH 578 0
DWIDTH 16 0
BBX 16 25 0 0
BITMAP
03F0
0FF8
0FFC
1CDC
1CDC
0FFC
0FFC
3FFC
7806
FF3F
FF3F
FF3F
FF3F
FF3F
FF3F
FF3F
FF3F
F807
F807
FFFF
FFFF
FFFF
7FFE
3FFE
1FF8
ENDCHAR
STARTCHAR Eth
ENCODING 208
SWIDTH 578 0
DWIDTH 16 0
BBX 16 19 0 0
BITMAP
07F0
3FFC
7006
F3F7
F3F7
F3F7
F3F7
F3F7
F3F7
F3F7
F3F7
F007
F00F
FFFF
FFFF
FFFF
7FFE
3FFE
1FF8
ENDCHAR
STARTCHAR Ntilde
ENCODING 209
SWIDTH 578 0
DWIDTH 16 0
BBX 16 27 0 0
BITMAP
03E0
0FF8
1FF8
3FFC
3FFC
3CDC
3A1C
1FFC
1FF8
3FFC
7006
F3E7
F3E7
F3E7
F3E7
F3E7
F3E7
F3E7
F3E7
F3E7
F3E7
FFFF
FFFF
FFFF
7FFE
3FFE
1FF8
ENDCHAR
STARTCHAR Ograve
ENCODING 210
SWIDTH 578 0
DWIDTH 16 0
BBX 16 26 0 0
BITMAP
0FC0
1FC0
1CE0
1CE0
0EE0
0EE0
0770
07F0
3FFC
7806
F3F7
F3F7
F3F7
F3F7
F3F7
F3F7
F3F7
F3F7
F807
F80F
FFFF
FFFF
FFFF
7FFE
3FFE
1FF8
ENDCHAR
STARTCHAR Oacute
ENCODING 211
SWIDTH 578 0
DWIDTH 16 0
BBX 16 26 0 0
BITMAP
01F8
01FC
039C
03BC
03B8
0778
0770
07F0
3FFC
7806
F3F7
F3F7
F3F7
F3F7
F3F7
F3F7
F3F7
F3F7
F807
F80F
FFFF
FFFF
FFFF
7FFE
3FFE
1FF8
ENDCHAR
STARTCHAR Ocircumflex
ENCODING 212
SWIDTH 578 0
DWIDTH 16 0
BBX 16 27 0 0
BITMAP
01E0
03F0
07F0
07B0
0EB8
0EB8
0EDC
0FFC
0FF8
3FFC
7806
F3F7
F3F7
F3F7
F3F7
F3F7
F3F7
F3F7
F3F7
F807
F80F
FFFF
FFFF
FFFF
7FFE
3FFE
1FF8
ENDCHAR
STARTCHAR Otilde
ENCODING 213
SWIDTH 578 0
DWIDTH 16 0
BBX 16 27 0 0
BITMAP
03E0
0FF8
1FFC
1FFC
1FFE
1CCE
1D1E
1FFC
0FF8
3FFC
7806
F3F7
F3F7
F3F7
F3F7
F3F7
F3F7
F3F7
F3F7
F807
F80F
FFFF
FFFF
FFFF
7FFE
3FFE
1FF8
ENDCHAR
STARTCHAR Odieresis
ENCODING 214
SWIDTH 578 0
DWIDTH 16 0
BBX 16 25 0 0
BITMAP
03F0
0FF8
0FFC
1CDC
1CDC
1FFC
0FF8
3FFC
7806
F3F7
F3F7
F3F7
F3F7
F3F7
F3F7
F3F7
F3F7
F807
F80F
FFFF
FFFF
FFFF
7FFE
3FFE
1FF8
ENDCHAR
STARTCHAR multiply
ENCODING 215
SWIDTH 578 0
DWIDTH 16 0
BBX 16 19 0 0
BITMAP
07F0
3FFC
7FFE
FFFF
FFDF
FC9F
FE7F
FF3F
FC9F
FFDF
FFFF
FFFF
FFFF
FFFF
FFFF
FFFF
7FFE
3FFE
1FF8
ENDCHAR
STARTCHAR Oslash
ENCODING 216
SWIDTH 578 0
DWIDTH 16 0
BBX 16 19 0 0
BITMAP
07F0
3E3C
7806
F3E7
F3D7
F3A7
F327
F367
F2E7
F4E7
F1E7
F007
F80F
FFFF
FFFF
FFFF
7FFE
3FFE
1FF8
ENDCHAR
STARTCHAR Ugrave
ENCODING 217
SWIDTH 578 0
DWIDTH 16 0
BBX 16 26 0 0
BITMAP
0FC0
1FC0
1CE0
1EE0
0EE0
0E60
0770
07F0
3FFC
73E6
F3E7
F3E7
F3E7
F3E7
F3E7
F3E7
F3E7
F3E7
F807
F80F
FFFF
FFFF
FFFF
7FFE
3FFE
1FF8
ENDCHAR
STARTCHAR Uacute
ENCODING 218
SWIDTH 578 0
DWIDTH 16 0
BBX 16 26 0 0
BITMAP
01F8
01FC
039C
03BC
03B8
0778
0770
07F0
3FFC
73E6
F3E7
F3E7
F3E7
F3E7
F3E7
F3E7
F3E7
F3E7
F807
F80F
FFFF
FFFF
FFFF
7FFE
3FFE
1FF8
ENDCHAR
STARTCHAR Ucircumflex
ENCODING 219
SWIDTH 578 0
DWIDTH 16 0
BBX 16 27 0 0
BITMAP
01E0
03F0
07F0
07B8
0EB8
0EB8
0EDC
0FFC
0FFC
3FFC
73E6
F3E7
F3E7
F3E7
F3E7
F3E7
F3E7
F3E7
F3E7
F807
F80F
FFFF
FFFF
FFFF
7FFE
3FFE
1FF8
ENDCHAR
STARTCHAR Udieresis
ENCODING 220
SWIDTH 578 0
DWIDTH 16 0
BBX 16 25 0 0
BITMAP
03F0
0FF8
0FFC
1CDC
1CDC
0FFC
0FF8
3FFC
73E6
F3E7
F3E7
F3E7
F3E7
F3E7
F3E7
F3E7
F3E7
F807
F80F
FFFF
FFFF
FFFF
7FFE
3FFE
1FF8
ENDCHAR
STARTCHAR Yacute
ENCODING 221
SWIDTH 578 0
DWIDTH 16 0
BBX 16 26 0 0
BITMAP
01F8
01FC
039C
03BC
03B8
0778
0770
07F0
3FFC
79EE
F9CF
FDCF
FCDF
FE9F
FEBF
FF3F
FF7F
FF7F
FF7F
FF7F
FFFF
FFFF
FFFF
7FFE
3FFE
1FF8
ENDCHAR
STARTCHAR Thorn
ENCODING 222
SWIDTH 578 0
DWIDTH 16 0
BBX 16 19 0 0
BITMAP
07F0
39FC
79FE
F83F
F80F
F9E7
F9E7
F9E7
F807
F81F
F9FF
F9FF
F9FF
FFFF
FFFF
FFFF
7FFE
3FFE
1FF8
ENDCHAR
STARTCHAR germandbls
ENCODING 223
SWIDTH 578 0
DWIDTH 16 0
BBX 16 19 0 0
BITMAP
07F0
3FFC
780E
F3EF
F3EF
F3EF
F39F
F3C7
F3E7
F3E7
F3E7
F307
F30F
FFFF
FFFF
FFFF
7FFE
3FFE
1FF8
ENDCHAR
STARTCHAR agrave
ENCODING 224
SWIDTH 578 0
DWIDTH 16 0
BBX 16 26 0 0
BITMAP
0FC0
1FC0
1CE0
1EE0
0EE0
0E60
0770
07F0
3FFC
780E
FFCF
FFEF
FFEF
FFEF
F80F
F3EF
F7EF
F3EF
F00F
F80F
FFFF
FFFF
FFFF
7FFE
3FFE
1FF8
ENDCHAR
STARTCHAR aacute
ENCODING 225
SWIDTH 578 0
DWIDTH 16 0
BBX 16 26 0 0
BITMAP
01F8
01FC
039C
03BC
03B8
0778
0770
07F0
3FFC
780E
FFCF
FFEF
FFEF
FFEF
F80F
F3EF
F7EF
F3EF
F00F
F80F
FFFF
FFFF
FFFF
7FFE
3FFE
1FF8
ENDCHAR
STARTCHAR acircumflex
ENCODING 226
SWIDTH 578 0
DWIDTH 16 0
BBX 16 27 0 0
BITMAP
01E0
03F0
07F0
07B8
0EB8
0EB8
0EDC
0FFC
0FFC
3FFC
780E
FFCF
FFEF
FFEF
FFEF
F80F
F3EF
F7EF
F3EF
F00F
F80F
FFFF
FFFF
FFFF
7FFE
3FFE
1FF8
ENDCHAR
STARTCHAR atilde
ENCODING 227
SWIDTH 578 0
DWIDTH 16 0
BBX 16 27 0 0
BITMAP
03F0
0FF8
0FFC
1FFE
1FFE
1CCE
1D1E
1FFC
0FFC
3FFC
780E
FFCF
FFEF
FFEF
FFEF
F80F
F3EF
F7EF
F3EF
F00F
F80F
FFFF
FFFF
FFFF
7FFE
3FFE
1FF8
ENDCHAR
STARTCHAR adieresis
ENCODING 228
SWIDTH 578 0
DWIDTH 16 0
BBX 16 25 0 0
BITMAP
03F0
0FF8
0FFC
1CDC
1CDC
0FFC
0FF8
3FFC
780E
FFCF
FFEF
FFEF
FFEF
F80F
F3EF
F7EF
F3EF
F00F
F80F
FFFF
FFFF
FFFF
7FFE
3FFE
1FF8
ENDCHAR
STARTCHAR aring
ENCODING 229
SWIDTH 578 0
DWIDTH 16 0
BBX 16 27 0 0
BITMAP
00C0
07F0
0FF8
0E18
1DDC
1DDC
1E1C
0FF8
0FF8
3FFC
780E
FFCF
FFEF
FFEF
FFEF
F80F
F3EF
F7EF
F3EF
F00F
F80F
FFFF
FFFF
FFFF
7FFE
3FFE
1FF8
ENDCHAR
STARTCHAR ae
ENCODING 230
SWIDTH 578 0
DWIDTH 16 0
BBX 16 19 0 0
BITMAP
07F0
3E0C
7806
F37F
F37F
F37F
F307
F707
F77F
F07F
F07F
F707
E707
FFFF
FFFF
FFFF
7FFE
3FFE
1FF8
ENDCHAR
STARTCHAR ccedilla
ENCODING 231
SWIDTH 578 0
DWIDTH 16 0
BBX 16 19 0 0
BITMAP
07F0
3FFC
701E
F3FF
F3FF
F3FF
F3FF
F3FF
F3FF
F3FF
F3FF
F01F
F80F
FF7F
FCFF
FDFF
7E7E
3FFE
1FF8
ENDCHAR
STARTCHAR egrave
ENCODING 232
SWIDTH 578 0
DWIDTH 16 0
BBX 16 27 0 0
BITMAP
0FC0
1FC0
1CC0
1CE0
0EE0
0EE0
0760
07E0
07F0
3FFC
700E
F3CF
F3EF
F3EF
F00F
F3FF
F3FF
F3FF
F3FF
F81F
FFFF
FFFF
FFFF
FFFF
7FFE
3FFE
1FF8
ENDCHAR
STARTCHAR eacute
ENCODING 233
SWIDTH 578 0
DWIDTH 16 0
BBX 16 27 0 0
BITMAP
01F8
03F8
03BC
03B8
0778
0770
0770
07E0
07F0
3FFC
700E
F3CF
F3EF
F3EF
F00F
F3FF
F3FF
F3FF
F3FF
F81F
FFFF
FFFF
FFFF
FFFF
7FFE
3FFE
1FF8
ENDCHAR
STARTCHAR ecircumflex
ENCODING 234
SWIDTH 578 0
DWIDTH 16 0
BBX 16 27 0 0
BITMAP
03C0
07E0
07E0
0EF0
0EF0
1DB8
1DB8
1FF8
1FF8
3FFC
700E
F3CF
F3EF
F3EF
F00F
F3FF
F3FF
F3FF
F3FF
F81F
FFFF
FFFF
FFFF
FFFF
7FFE
3FFE
1FF8
ENDCHAR
STARTCHAR edieresis
ENCODING 235
SWIDTH 578 0
DWIDTH 16 0
BBX 16 25 0 0
BITMAP
07E0
0FF0
1FF8
1998
199C
1FF8
1FF8
3FFC
700E
F3CF
F3EF
F3EF
F00F
F3FF
F3FF
F3FF
F3FF
F81F
FFFF
FFFF
FFFF
FFFF
7FFE
3FFE
1FF8
ENDCHAR
STARTCHAR igrave
ENCODING 236
SWIDTH 578 0
DWIDTH 16 0
BBX 16 26 0 0
BITMAP
0FC0
1FC0
1CE0
1EE0
0EE0
0E60
0770
07F0
3FFC
7806
FF3F
FF3F
FF3F
FF3F
FF3F
FF3F
FF3F
FF3F
F807
F807
FFFF
FFFF
FFFF
7FFE
3FFE
1FF8
ENDCHAR
STARTCHAR iacute
ENCODING 237
SWIDTH 578 0
DWIDTH 16 0
BBX 16 26 0 0
BITMAP
01F8
01FC
039C
03BC
03B8
0778
0770
07F0
3FFC
7806
FF3F
FF3F
FF3F
FF3F
FF3F
FF3F
FF3F
FF3F
F807
F807
FFFF
FFFF
FFFF
7FFE
3FFE
1FF8
ENDCHAR
STARTCHAR icircumflex
ENCODING 238
SWIDTH 578 0
DWIDTH 16 0
BBX 16 27 0 0
BITMAP
01E0
03F0
07F0
07B8
06B8
0EB8
0EDC
0FFC
0FFC
3FFC
7806
FF3F
FF3F
FF3F
FF3F
FF3F
FF3F
FF3F
FF3F
F807
F807
FFFF
FFFF
FFFF
7FFE
3FFE
1FF8
ENDCHAR
STARTCHAR idieresis
ENCODING 239
SWIDTH 578 0
DWIDTH 16 0
BBX 16 25 0 0
BITMAP
03F0
0FF8
0FFC
1CDC
1CDC
0FFC
0FFC
3FFC
7806
FF3F
FF3F
FF3F
FF3F
FF3F
FF3F
FF3F
FF3F
F807
F807
FFFF
FFFF
FFFF
7FFE
3FFE
1FF8
ENDCHAR
STARTCHAR eth
ENCODING 240
SWIDTH 578 0
DWIDTH 16 0
BBX 16 19 0 0
BITMAP
07F0
3FFC
7006
F3F7
F3F7
F3F7
F3F7
F3F7
F3F7
F3F7
F3F7
F007
F00F
FFFF
FFFF
FFFF
7FFE
3FFE
1FF8
ENDCHAR
STARTCHAR ntilde
ENCODING 241
SWIDTH 578 0
DWIDTH 16 0
BBX 16 27 0 0
BITMAP
07E0
0FF8
1FF8
3FFC
3FFC
38DC
3A1C
1FFC
1FF8
3FFC
7006
F3E7
F3E7
F3E7
F3E7
F3E7
F3E7
F3E7
F3E7
F3E7
F3E7
FFFF
FFFF
FFFF
7FFE
3FFE
1FF8
ENDCHAR
STARTCHAR oacute
ENCODING 243
SWIDTH 578 0
DWIDTH 16 0
BBX 16 26 0 0
BITMAP
01F8
03FC
03BC
03B8
0738
0770
0770
07F0
3FFC
7806
F3F7
F3F7
F3F7
F3F7
F3F7
F3F7
F3F7
F3F7
F807
F80F
FFFF
FFFF
FFFF
7FFE
3FFE
1FF8
ENDCHAR
STARTCHAR ocircumflex
ENCODING 244
SWIDTH 578 0
DWIDTH 16 0
BBX 16 27 0 0
BITMAP
01E0
03F0
07F0
07B8
0EB8
0EB8
0EDC
0FFC
0FFC
3FFC
7806
F3F7
F3F7
F3F7
F3F7
F3F7
F3F7
F3F7
F3F7
F807
F80F
FFFF
FFFF
FFFF
7FFE
3FFE
1FF8
ENDCHAR
STARTCHAR otilde
ENCODING 245
SWIDTH 578 0
DWIDTH 16 0
BBX 16 27 0 0
BITMAP
03E0
0FF8
1FFC
1FFC
1FFE
1CDE
191C
1FFC
0FF8
3FFC
7806
F3F7
F3F7
F3F7
F3F7
F3F7
F3F7
F3F7
F3F7
F807
F80F
FFFF
FFFF
FFFF
7FFE
3FFE
1FF8
ENDCHAR
STARTCHAR odieresis
ENCODING 246
SWIDTH 578 0
DWIDTH 16 0
BBX 16 25 0 0
BITMAP
03F0
0FF8
0FFC
1CDC
1CDC
0FFC
0FF8
3FFC
7806
F3F7
F3F7
F3F7
F3F7
F3F7
F3F7
F3F7
F3F7
F807
F80F
FFFF
FFFF
FFFF
7FFE
3FFE
1FF8
ENDCHAR
STARTCHAR divide
ENCODING 247
SWIDTH 428 0
DWIDTH 12 0
BBX 12 19 0 0
BITMAP
0600
3FC0
7FE0
F9F0
FFF0
E070
FFF0
F9F0
F9F0
FFF0
FFF0
FFF0
FFF0
FFF0
FFF0
FFF0
7FE0
3FC0
1F80
ENDCHAR
STARTCHAR oslash
ENCODING 248
SWIDTH 578 0
DWIDTH 16 0
BBX 16 19 0 0
BITMAP
07F0
3E3C
7806
F3E7
F3D7
F3A7
F327
F367
F2E7
F4E7
F1E7
F007
F80F
FFFF
FFFF
FFFF
7FFE
3FFE
1FF8
ENDCHAR
STARTCHAR ugrave
ENCODING 249
SWIDTH 578 0
DWIDTH 16 0
BBX 16 26 0 0
BITMAP
0FC0
1FC0
1CE0
1EE0
0EE0
0E60
0770
07F0
3FFC
73E6
F3E7
F3E7
F3E7
F3E7
F3E7
F3E7
F3E7
F3E7
F807
F80F
FFFF
FFFF
FFFF
7FFE
3FFE
1FF8
ENDCHAR
STARTCHAR uacute
ENCODING 250
SWIDTH 578 0
DWIDTH 16 0
BBX 16 26 0 0
BITMAP
01F8
01FC
039C
03BC
03B8
0778
0770
07F0
3FFC
73E6
F3E7
F3E7
F3E7
F3E7
F3E7
F3E7
F3E7
F3E7
F807
F80F
FFFF
FFFF
FFFF
7FFE
3FFE
1FF8
ENDCHAR
STARTCHAR ucircumflex
ENCODING 251
SWIDTH 578 0
DWIDTH 16 0
BBX 16 27 0 0
BITMAP
01E0
03F0
07F0
07B8
06B8
0EB8
0EDC
0FFC
0FFC
3FFC
73E6
F3E7
F3E7
F3E7
F3E7
F3E7
F3E7
F3E7
F3E7
F807
F80F
FFFF
FFFF
FFFF
7FFE
3FFE
1FF8
ENDCHAR
STARTCHAR udieresis
ENCODING 252
SWIDTH 578 0
DWIDTH 16 0
BBX 16 25 0 0
BITMAP
03F0
0FF8
0FFC
1CDC
1CDC
0FFC
0FFC
3FFC
73E6
F3E7
F3E7
F3E7
F3E7
F3E7
F3E7
F3E7
F3E7
F807
F80F
FFFF
FFFF
FFFF
7FFE
3FFE
1FF8
ENDCHAR
STARTCHAR yacute
ENCODING 253
SWIDTH 578 0
DWIDTH 16 0
BBX 16 26 0 0
BITMAP
01F8
01FC
039C
03BC
03B8
0778
0770
07F0
3FFC
79EE
F9CF
FDCF
FCDF
FE9F
FEBF
FF3F
FF7F
FF7F
FF7F
FF7F
FFFF
FFFF
FFFF
7FFE
3FFE
1FF8
ENDCHAR
STARTCHAR thorn
ENCODING 254
SWIDTH 578 0
DWIDTH 16 0
BBX 16 19 0 0
BITMAP
07F0
39FC
79FE
F83F
F80F
F9E7
F9E7
F9E7
F807
F81F
F9FF
F9FF
F9FF
FFFF
FFFF
FFFF
7FFE
3FFE
1FF8
ENDCHAR
STARTCHAR ydieresis
ENCODING 255
SWIDTH 578 0
DWIDTH 16 0
BBX 16 25 0 0
BITMAP
03F0
0FF8
0FFC
1CDC
1CDC
1FFC
0FF8
3FFC
79EE
F9CF
FDCF
FCDF
FE9F
FEBF
FF3F
FF7F
FF7F
FF7F
FF7F
FFFF
FFFF
FFFF
7FFE
3FFE
1FF8
ENDCHAR
STARTCHAR Amacron
ENCODING 256
SWIDTH 578 0
DWIDTH 16 0
BBX 16 25 0 0
BITMAP
07F0
0FF8
1FFC
1FFC
3C1E
1FFC
1FFC
3FFC
780E
FBEF
FBEF
FBEF
FBEF
F80F
F807
F3E7
F3E7
F3E7
F3E7
FFFF
FFFF
FFFF
7FFE
3FFE
1FF8
ENDCHAR
STARTCHAR amacron
ENCODING 257
SWIDTH 578 0
DWIDTH 16 0
BBX 16 25 0 0
BITMAP
07F0
0FFC
1FFC
1FFE
1C1E
1FFE
1FFC
3FFC
780E
FFCF
FFEF
FFEF
FFEF
F80F
F3EF
F7EF
F3EF
F00F
F80F
FFFF
FFFF
FFFF
7FFE
3FFE
1FF8
ENDCHAR
STARTCHAR Abreve
ENCODING 258
SWIDTH 578 0
DWIDTH 16 0
BBX 16 26 0 0
BITMAP
07F0
0FF8
1FFC
1FFC
3DDE
1C1C
1FFC
0FF8
3FFC
780E
FBEF
FBEF
FBEF
FBEF
F80F
F807
F3E7
F3E7
F3E7
F3E7
FFFF
FFFF
FFFF
7FFE
3FFE
1FF8
ENDCHAR
STARTCHAR abreve
ENCODING 259
SWIDTH 578 0
DWIDTH 16 0
BBX 16 26 0 0
BITMAP
07F0
0FFC
1FFC
1FFE
1CDE
1E1E
1FFC
0FF8
3FFC
780E
FFCF
FFEF
FFEF
FFEF
F80F
F3EF
F7EF
F3EF
F00F
F80F
FFFF
FFFF
FFFF
7FFE
3FFE
1FF8
ENDCHAR
STARTCHAR Aogonek
ENCODING 260
SWIDTH 578 0
DWIDTH 16 0
BBX 16 19 0 0
BITMAP
07F0
3FFC
780E
FBEF
FBEF
FBEF
FBEF
F80F
F807
F3E7
F3E7
F3E7
F3F7
FFEF
FFDF
FFDF
7FC6
3FFE
1FF8
ENDCHAR
STARTCHAR aogonek
ENCODING 261
SWIDTH 578 0
DWIDTH 16 0
BBX 16 19 0 0
BITMAP
07F0
3FFC
780E
FFCF
FFEF
FFEF
FFEF
F80F
F3EF
F7EF
F3EF
F00F
F88F
FF7F
FEFF
FEFF
7E3E
3FFE
1FF8
ENDCHAR
STARTCHAR Cacute
ENCODING 262
SWIDTH 578 0
DWIDTH 16 0
BBX 16 26 0 0
BITMAP
01F8
01FC
039C
03BC
03B8
0338
0770
07F0
3FFC
701E
F3FF
F3FF
F3FF
F3FF
F3FF
F3FF
F3FF
F3FF
F01F
F80F
FFFF
FFFF
FFFF
7FFE
3FFE
1FF8
ENDCHAR
STARTCHAR cacute
ENCODING 263
SWIDTH 578 0
DWIDTH 16 0
BBX 16 26 0 0
BITMAP
01F8
01FC
039C
03BC
03B8
0778
0770
07F0
3FFC
701E
F3FF
F3FF
F3FF
F3FF
F3FF
F3FF
F3FF
F3FF
F01F
F80F
FFFF
FFFF
FFFF
7FFE
3FFE
1FF8
ENDCHAR
STARTCHAR Ccircumflex
ENCODING 264
SWIDTH 578 0
DWIDTH 16 0
BBX 16 27 0 0
BITMAP
01E0
03E0
07F0
07F0
0EB8
0EB8
0DD8
1FFC
0FF8
3FFC
701E
F3FF
F3FF
F3FF
F3FF
F3FF
F3FF
F3FF
F3FF
F01F
F80F
FFFF
FFFF
FFFF
7FFE
3FFE
1FF8
ENDCHAR
STARTCHAR ccircumflex
ENCODING 265
SWIDTH 578 0
DWIDTH 16 0
BBX 16 27 0 0
BITMAP
03C0
03E0
07F0
07F0
0EB8
0EB8
0D98
1FF8
0FF8
3FFC
701E
F3FF
F3FF
F3FF
F3FF
F3FF
F3FF
F3FF
F3FF
F01F
F80F
FFFF
FFFF
FFFF
7FFE
3FFE
1FF8
ENDCHAR
STARTCHAR Cdotaccent
ENCODING 266
SWIDTH 578 0
DWIDTH 16 0
BBX 16 25 0 0
BITMAP
0FE0
1FF8
3FFC
3FFC
3E7C
3FFC
3FF8
3FFC
701E
F3FF
F3FF
F3FF
F3FF
F3FF
F3FF
F3FF
F3FF
F01F
F80F
FFFF
FFFF
FFFF
7FFE
3FFE
1FF8
ENDCHAR
STARTCHAR cdotaccent
ENCODING 267
SWIDTH 578 0
DWIDTH 16 0
BBX 16 25 0 0
BITMAP
07F0
1FF8
3FFC
3FFC
3E7C
3FFC
1FFC
3FFC
701E
F3FF
F3FF
F3FF
F3FF
F3FF
F3FF
F3FF
F3FF
F01F
F80F
FFFF
FFFF
FFFF
7FFE
3FFE
1FF8
ENDCHAR
STARTCHAR Ccaron
ENCODING 268
SWIDTH 578 0
DWIDTH 16 0
BBX 16 26 0 0
BITMAP
0FF0
1FF8
1DB8
1DB8
1DF8
0F70
0E70
0FF0
3FFC
701E
F3FF
F3FF
F3FF
F3FF
F3FF
F3FF
F3FF
F3FF
F01F
F80F
FFFF
FFFF
FFFF
7FFE
3FFE
1FF8
ENDCHAR
STARTCHAR ccaron
ENCODING 269
SWIDTH 578 0
DWIDTH 16 0
BBX 16 26 0 0
BITMAP
0FF0
1FF8
1DB8
1DB8
1EB8
0EF8
0E70
0FF0
3FFC
701E
F3FF
F3FF
F3FF
F3FF
F3FF
F3FF
F3FF
F3FF
F01F
F80F
FFFF
FFFF
FFFF
7FFE
3FFE
1FF8
ENDCHAR
STARTCHAR Dcaron
ENCODING 270
SWIDTH 578 0
DWIDTH 16 0
BBX 16 27 0 0
BITMAP
0FF0
1FF8
1DB8
1DB8
1EB8
0EF8
0E70
0FF0
07F0
3FFC
7006
F3F7
F3F7
F3F7
F3F7
F3F7
F3F7
F3F7
F3F7
F007
F00F
FFFF
FFFF
FFFF
7FFE
3FFE
1FF8
ENDCHAR
STARTCHAR dcaron
ENCODING 271
SWIDTH 578 0
DWIDTH 16 0
BBX 16 19 0 0
BITMAP
07F0
3FFC
6012
E7DB
E7D7
E7DF
E7DF
E7DF
E7DF
E7DF
E7DF
E01F
E03F
FFFF
FFFF
FFFF
7FFE
3FFE
1FF8
ENDCHAR
STARTCHAR Dcroat
ENCODING 272
SWIDTH 578 0
DWIDTH 16 0
BBX 16 19 0 0
BITMAP
07F0
3FFC
7006
F3F7
F3F7
F3F7
E0F7
F3F7
F3F7
F3F7
F3F7
F007
F00F
FFFF
FFFF
FFFF
7FFE
3FFE
1FF8
ENDCHAR
STARTCHAR dcroat
ENCODING 273
SWIDTH 578 0
DWIDTH 16 0
BBX 16 19 0 0
BITMAP
07F0
3FFC
7006
F3F7
F3F7
F3F7
E0F7
F3F7
F3F7
F3F7
F3F7
F007
F00F
FFFF
FFFF
FFFF
7FFE
3FFE
1FF8
ENDCHAR
STARTCHAR Emacron
ENCODING 274
SWIDTH 578 0
DWIDTH 16 0
BBX 16 25 0 0
BITMAP
07F0
0FFC
1FFC
1FFE
1C1E
1FFE
1FFC
3FFC
7C0E
FDFF
FDFF
FDFF
FC1F
FC1F
FDFF
FDFF
FDFF
FC0F
FC0F
FFFF
FFFF
FFFF
7FFE
3FFE
1FF8
ENDCHAR
STARTCHAR emacron
ENCODING 275
SWIDTH 578 0
DWIDTH 16 0
BBX 16 25 0 0
BITMAP
07E0
1FF8
3FFC
3FFC
383C
3FFC
1FF8
3FFC
700E
F3CF
F3EF
F3EF
F00F
F3FF
F3FF
F3FF
F3FF
F81F
FFFF
FFFF
FFFF
FFFF
7FFE
3FFE
1FF8
ENDCHAR
STARTCHAR Ebreve
ENCODING 276
SWIDTH 578 0
DWIDTH 16 0
BBX 16 26 0 0
BITMAP
07F0
0FFC
1FFC
1FFE
1CDE
1E1E
1FFC
0FF8
3FFC
7C0E
FDFF
FDFF
FDFF
FC1F
FC1F
FDFF
FDFF
FDFF
FC0F
FC0F
FFFF
FFFF
FFFF
7FFE
3FFE
1FF8
ENDCHAR
STARTCHAR ebreve
ENCODING 277
SWIDTH 578 0
DWIDTH 16 0
BBX 16 26 0 0
BITMAP
07E0
1FF8
3FFC
3FFC
3D9C
3C3C
1FF8
0FF0
3FFC
700E
F3CF
F3EF
F3EF
F00F
F3FF
F3FF
F3FF
F3FF
F81F
FFFF
FFFF
FFFF
FFFF
7FFE
3FFE
1FF8
ENDCHAR
STARTCHAR Edotaccent
ENCODING 278
SWIDTH 578 0
DWIDTH 16 0
BBX 16 26 0 0
BITMAP
07F0
0FFC
1FFC
1FFE
1F3E
1FFE
1FFC
0FFC
3FFC
7C0E
FDFF
FDFF
FDFF
FC1F
FC1F
FDFF
FDFF
FDFF
FC0F
FC0F
FFFF
FFFF
FFFF
7FFE
3FFE
1FF8
ENDCHAR
STARTCHAR edotaccent
ENCODING 279
SWIDTH 578 0
DWIDTH 16 0
BBX 16 26 0 0
BITMAP
07E0
1FF8
3FFC
3FFC
3E7C
3FFC
1FFC
1FF8
3FFC
700E
F3CF
F3EF
F3EF
F00F
F3FF
F3FF
F3FF
F3FF
F81F
FFFF
FFFF
FFFF
FFFF
7FFE
3FFE
1FF8
ENDCHAR
STARTCHAR Eogonek
ENCODING 280
SWIDTH 578 0
DWIDTH 16 0
BBX 16 19 0 0
BITMAP
07F0
3FFC
7C0E
FDFF
FDFF
FDFF
FC1F
FC1F
FDFF
FDFF
FDFF
FC0F
FC0F
FFEF
FF9F
FF9F
7FCE
3FFE
1FF8
ENDCHAR
STARTCHAR eogonek
ENCODING 281
SWIDTH 578 0
DWIDTH 16 0
BBX 16 19 0 0
BITMAP
07F0
3FFC
700E
F3CF
F3EF
F3EF
F00F
F3FF
F3FF
F3FF
F3FF
F81F
FFBF
FF7F
FEFF
FE3F
7F3E
3FFE
1FF8
ENDCHAR
STARTCHAR Ecaron
ENCODING 282
SWIDTH 578 0
DWIDTH 16 0
BBX 16 26 0 0
BITMAP
07F8
0FFC
0EDC
0EDC
0EBC
0FB8
0738
07F8
3FFC
7C0E
FDFF
FDFF
FDFF
FC1F
FC1F
FDFF
FDFF
FDFF
FC0F
FC0F
FFFF
FFFF
FFFF
7FFE
3FFE
1FF8
ENDCHAR
STARTCHAR ecaron
ENCODING 283
SWIDTH 578 0
DWIDTH 16 0
BBX 16 26 0 0
BITMAP
0FF0
1FF8
1DB8
1DB8
1EB8
0EF8
0E70
0FF0
3FFC
700E
F3CF
F3EF
F3EF
F00F
F3FF
F3FF
F3FF
F3FF
F81F
FFFF
FFFF
FFFF
FFFF
7FFE
3FFE
1FF8
ENDCHAR
STARTCHAR Gcircumflex
ENCODING 284
SWIDTH 578 0
DWIDTH 16 0
BBX 16 27 0 0
BITMAP
03C0
07E0
07F0
06F0
0EB8
0EB8
1DB8
1FF8
0FF8
3FFC
780E
FBFF
FBFF
FBFF
FBFF
FB87
FBF7
FBF7
FBF7
F807
FC0F
FFFF
FFFF
FFFF
7FFE
3FFE
1FF8
ENDCHAR
STARTCHAR gcircumflex
ENCODING 285
SWIDTH 578 0
DWIDTH 16 0
BBX 16 27 0 0
BITMAP
03C0
07E0
07F0
06F0
0EB8
0EB8
1DB8
1FF8
0FF8
3FFC
780E
FBFF
FBFF
FBFF
FBFF
FB87
FBF7
FBF7
FBF7
F807
FC0F
FFFF
FFFF
FFFF
7FFE
3FFE
1FF8
ENDCHAR
STARTCHAR Gbreve
ENCODING 286
SWIDTH 578 0
DWIDTH 16 0
BBX 16 26 0 0
BITMAP
07F0
1FF8
1FFC
3FFC
3DDC
3C3C
1FFC
0FF8
3FFC
780E
FBFF
FBFF
FBFF
FBFF
FB87
FBF7
FBF7
FBF7
F807
FC0F
FFFF
FFFF
FFFF
7FFE
3FFE
1FF8
ENDCHAR
STARTCHAR gbreve
ENCODING 287
SWIDTH 578 0
DWIDTH 16 0
BBX 16 26 0 0
BITMAP
07E0
1FF8
3FFC
3FFC
3D9C
3C3C
1FF8
0FF0
3FFC
780E
FBFF
FBFF
FBFF
FBFF
FB87
FBF7
FBF7
FBF7
F807
FC0F
FFFF
FFFF
FFFF
7FFE
3FFE
1FF8
ENDCHAR
STARTCHAR Gdotaccent
ENCODING 288
SWIDTH 578 0
DWIDTH 16 0
BBX 16 26 0 0
BITMAP
07E0
1FF8
3FFC
3FFC
3E7C
3FFC
1FFC
1FF8
3FFC
780E
FBFF
FBFF
FBFF
FBFF
FB87
FBF7
FBF7
FBF7
F807
FC0F
FFFF
FFFF
FFFF
7FFE
3FFE
1FF8
ENDCHAR
STARTCHAR gdotaccent
ENCODING 289
SWIDTH 578 0
DWIDTH 16 0
BBX 16 26 0 0
BITMAP
07E0
1FF8
3FFC
3FFC
3E7C
3FFC
1FFC
1FF8
3FFC
780E
FBFF
FBFF
FBFF
FBFF
FB87
FBF7
FBF7
FBF7
F807
FC0F
FFFF
FFFF
FFFF
7FFE
3FFE
1FF8
ENDCHAR
STARTCHAR Gcommaaccent
ENCODING 290
SWIDTH 578 0
DWIDTH 16 0
BBX 16 19 0 0
BITMAP
07F0
3FFC
780E
FBFF
FBFF
FBFF
FBFF
FB87
FBF7
FBF7
FBF7
F807
FC0F
FFFF
FF3F
FFBF
7F3E
3FFE
1FF8
ENDCHAR
STARTCHAR gcommaaccent
ENCODING 291
SWIDTH 578 0
DWIDTH 16 0
BBX 16 19 0 0
BITMAP
07F0
3FFC
780E
FBFF
FBFF
FBFF
FBFF
FB87
FBF7
FBF7
FBF7
F807
FC0F
FFFF
FF3F
FFBF
7F3E
3FFE
1FF8
ENDCHAR
STARTCHAR Hcircumflex
ENCODING 292
SWIDTH 578 0
DWIDTH 16 0
BBX 16 27 0 0
BITMAP
03C0
03E0
07F0
07F0
0EB8
0EB8
0D98
1FF8
0FF8
3FFC
73F6
F3F7
F3F7
F3F7
F007
F007
F3F7
F3F7
F3F7
F3F7
F3F7
FFFF
FFFF
FFFF
7FFE
3FFE
1FF8
ENDCHAR
STARTCHAR hcircumflex
ENCODING 293
SWIDTH 578 0
DWIDTH 16 0
BBX 16 27 0 0
BITMAP
01E0
03E0
07F0
07F0
0EB8
0EB8
0CD8
1FFC
0FF8
3FFC
73F6
F3F7
F3F7
F3F7
F007
F007
F3F7
F3F7
F3F7
F3F7
F3F7
FFFF
FFFF
FFFF
7FFE
3FFE
1FF8
ENDCHAR
STARTCHAR Hbar
ENCODING 294
SWIDTH 578 0
DWIDTH 16 0
BBX 16 26 0 0
BITMAP
07F0
1FF8
1FFC
3FFC
3C1C
3FFC
1FFC
0FF8
3FFC
73F6
F3F7
F3F7
F3F7
F007
F007
F3F7
F3F7
F3F7
F3F7
F3F7
FFFF
FFFF
FFFF
7FFE
3FFE
1FF8
ENDCHAR
STARTCHAR hbar
ENCODING 295
SWIDTH 578 0
DWIDTH 16 0
BBX 16 19 0 0
BITMAP
07F0
3FFC
73F6
F003
F003
F3F7
F007
F007
F3F7
F3F7
F3F7
F3F7
F3F7
FFFF
FFFF
FFFF
7FFE
3FFE
1FF8
ENDCHAR
STARTCHAR Itilde
ENCODING 296
SWIDTH 578 0
DWIDTH 16 0
BBX 16 27 0 0
BITMAP
03F0
07F8
0FFC
1FFE
1FFE
1CCE
1D0E
1FFC
0FFC
3FFC
7806
FF3F
FF3F
FF3F
FF3F
FF3F
FF3F
FF3F
FF3F
F807
F807
FFFF
FFFF
FFFF
7FFE
3FFE
1FF8
ENDCHAR
STARTCHAR itilde
ENCODING 297
SWIDTH 578 0
DWIDTH 16 0
BBX 16 27 0 0
BITMAP
03F0
0FF8
0FFC
1FFE
1FFE
1CCE
1D0E
1FFC
0FFC
3FFC
7806
FF3F
FF3F
FF3F
FF3F
FF3F
FF3F
FF3F
FF3F
F807
F807
FFFF
FFFF
FFFF
7FFE
3FFE
1FF8
ENDCHAR
STARTCHAR Imacron
ENCODING 298
SWIDTH 578 0
DWIDTH 16 0
BBX 16 26 0 0
BITMAP
07F0
0FFC
1FFC
1FFE
1C1E
1FFE
1FFC
0FF8
3FFC
7806
FF3F
FF3F
FF3F
FF3F
FF3F
FF3F
FF3F
FF3F
F807
F807
FFFF
FFFF
FFFF
7FFE
3FFE
1FF8
ENDCHAR
STARTCHAR imacron
ENCODING 299
SWIDTH 578 0
DWIDTH 16 0
BBX 16 26 0 0
BITMAP
07F0
0FFC
1FFC
1FFE
1C1E
1FFE
1FFC
0FF8
3FFC
7806
FF3F
FF3F
FF3F
FF3F
FF3F
FF3F
FF3F
FF3F
F807
F807
FFFF
FFFF
FFFF
7FFE
3FFE
1FF8
ENDCHAR
STARTCHAR Ibreve
ENCODING 300
SWIDTH 578 0
DWIDTH 16 0
BBX 16 26 0 0
BITMAP
03F0
0FFC
1FFE
1FFE
1CDE
1E1E
0FFC
0FF8
3FFC
7806
FF3F
FF3F
FF3F
FF3F
FF3F
FF3F
FF3F
FF3F
F807
F807
FFFF
FFFF
FFFF
7FFE
3FFE
1FF8
ENDCHAR
STARTCHAR ibreve
ENCODING 301
SWIDTH 578 0
DWIDTH 16 0
BBX 16 26 0 0
BITMAP
07F0
0FFC
1FFC
1FFE
1CDE
1E1E
1FFC
0FF8
3FFC
7806
FF3F
FF3F
FF3F
FF3F
FF3F
FF3F
FF3F
FF3F
F807
F807
FFFF
FFFF
FFFF
7FFE
3FFE
1FF8
ENDCHAR
STARTCHAR Iogonek
ENCODING 302
SWIDTH 578 0
DWIDTH 16 0
BBX 16 19 0 0
BITMAP
07F0
3FFC
7806
FF3F
FF3F
FF3F
FF3F
FF3F
FF3F
FF3F
FF3F
F807
F817
FFEF
FFDF
FFDF
7FC6
3FFE
1FF8
ENDCHAR
STARTCHAR iogonek
ENCODING 303
SWIDTH 578 0
DWIDTH 16 0
BBX 16 19 0 0
BITMAP
07F0
3FFC
7806
FF3F
FF3F
FF3F
FF3F
FF3F
FF3F
FF3F
FF3F
F807
F817
FFEF
FFDF
FFDF
7FC6
3FFE
1FF8
ENDCHAR
STARTCHAR Idotaccent
ENCODING 304
SWIDTH 578 0
DWIDTH 16 0
BBX 16 26 0 0
BITMAP
07F0
0FF8
1FFC
3FFC
3E7C
3FFC
1FFC
1FF8
3FFC
7806
FF3F
FF3F
FF3F
FF3F
FF3F
FF3F
FF3F
FF3F
F807
F807
FFFF
FFFF
FFFF
7FFE
3FFE
1FF8
ENDCHAR
STARTCHAR dotlessi
ENCODING 305
SWIDTH 578 0
DWIDTH 16 0
BBX 16 19 0 0
BITMAP
07F0
3FFC
7806
FF3F
FF3F
FF3F
FF3F
FF3F
FF3F
FF3F
FF3F
F807
F807
FFFF
FFFF
FFFF
7FFE
3FFE
1FF8
ENDCHAR
STARTCHAR IJ
ENCODING 306
SWIDTH 578 0
DWIDTH 16 0
BBX 16 19 0 0
BITMAP
07F0
3FFC
40F2
FBF3
FBF3
FBF3
FBF3
FBF3
FBF3
FBF3
FBF3
C083
C087
FFFF
FFFF
FFFF
7FFE
3FFE
1FF8
ENDCHAR
STARTCHAR ij
ENCODING 307
SWIDTH 578 0
DWIDTH 16 0
BBX 16 19 0 0
BITMAP
07F0
3FFC
40F2
FBF3
FBF3
FBF3
FBF3
FBF3
FBF3
FBF3
FBF3
C083
C087
FFFF
FFFF
FFFF
7FFE
3FFE
1FF8
ENDCHAR
STARTCHAR Jcircumflex
ENCODING 308
SWIDTH 578 0
DWIDTH 16 0
BBX 16 27 0 0
BITMAP
01E0
03F0
07F0
07B0
0EB8
0EB8
0EDC
0FFC
0FF8
3FFC
7F9E
FF9F
FF9F
FF9F
FF9F
FF9F
FF9F
FF9F
FF9F
FC1F
FC3F
FFFF
FFFF
FFFF
7FFE
3FFE
1FF8
ENDCHAR
STARTCHAR jcircumflex
ENCODING 309
SWIDTH 578 0
DWIDTH 16 0
BBX 16 27 0 0
BITMAP
01E0
03F0
07F0
07B0
0EB8
0EB8
0EDC
0FFC
0FF8
3FFC
7F9E
FF9F
FF9F
FF9F
FF9F
FF9F
FF9F
FF9F
FF9F
FC1F
FC3F
FFFF
FFFF
FFFF
7FFE
3FFE
1FF8
ENDCHAR
STARTCHAR Kcommaaccent
ENCODING 310
SWIDTH 578 0
DWIDTH 16 0
BBX 16 19 0 0
BITMAP
07F8
3FF4
7DE6
FDCF
FD9F
FD3F
FD7F
FC7F
FD3F
FD9F
FDCF
FDE7
FDF7
FFFF
FF3F
FFBF
7F3E
3FFE
1FF8
ENDCHAR
STARTCHAR kcommaaccent
ENCODING 311
SWIDTH 578 0
DWIDTH 16 0
BBX 16 19 0 0
BITMAP
07F8
3FF4
7DE6
FDCF
FD9F
FD3F
FD7F
FC7F
FD3F
FD9F
FDCF
FDE7
FDF7
FFFF
FF3F
FFBF
7F3E
3FFE
1FF8
ENDCHAR
STARTCHAR kgreenlandic
ENCODING 312
SWIDTH 578 0
DWIDTH 16 0
BBX 16 19 0 0
BITMAP
07F8
3FF4
7DE6
FDCF
FD9F
FD3F
FD7F
FC7F
FD3F
FD9F
FDCF
FDE7
FDF7
FFFF
FFFF
FFFF
7FFE
3FFE
1FF8
ENDCHAR
STARTCHAR Lacute
ENCODING 313
SWIDTH 578 0
DWIDTH 16 0
BBX 16 27 0 0
BITMAP
03F0
07F0
0770
0E70
0EF0
0EE0
0DE0
0FC0
07F0
3FFC
7CFE
FCFF
FCFF
FCFF
FCFF
FCFF
FCFF
FCFF
FCFF
FC0F
FC0F
FFFF
FFFF
FFFF
7FFE
3FFE
1FF8
ENDCHAR
STARTCHAR lacute
ENCODING 314
SWIDTH 578 0
DWIDTH 16 0
BBX 16 27 0 0
BITMAP
03F0
07F0
0770
0E70
0EF0
0EE0
0DE0
0FC0
07F0
3FFC
7CFE
FCFF
FCFF
FCFF
FCFF
FCFF
FCFF
FCFF
FCFF
FC0F
FC0F
FFFF
FFFF
FFFF
7FFE
3FFE
1FF8
ENDCHAR
STARTCHAR Lcommaaccent
ENCODING 315
SWIDTH 578 0
DWIDTH 16 0
BBX 16 19 0 0
BITMAP
07F0
3FFC
7CFE
FCFF
FCFF
FCFF
FCFF
FCFF
FCFF
FCFF
FCFF
FC0F
FC0F
FFFF
FF3F
FFBF
7F3E
3FFE
1FF8
ENDCHAR
STARTCHAR lcommaaccent
ENCODING 316
SWIDTH 578 0
DWIDTH 16 0
BBX 16 19 0 0
BITMAP
07F0
3FFC
7CFE
FCFF
FCFF
FCFF
FCFF
FCFF
FCFF
FCFF
FCFF
FC0F
FC0F
FFFF
FF3F
FFBF
7F3E
3FFE
1FF8
ENDCHAR
STARTCHAR Lcaron
ENCODING 317
SWIDTH 578 0
DWIDTH 16 0
BBX 16 19 0 0
BITMAP
07F0
3FFC
7C8E
FCDF
FCDF
FCFF
FCFF
FCFF
FCFF
FCFF
FCFF
FC0F
FC0F
FFFF
FFFF
FFFF
7FFE
3FFE
1FF8
ENDCHAR
STARTCHAR lcaron
ENCODING 318
SWIDTH 578 0
DWIDTH 16 0
BBX 16 19 0 0
BITMAP
07F0
3FFC
7C8E
FCDF
FCDF
FCFF
FCFF
FCFF
FCFF
FCFF
FCFF
FC0F
FC0F
FFFF
FFFF
FFFF
7FFE
3FFE
1FF8
ENDCHAR
STARTCHAR Ldot
ENCODING 319
SWIDTH 578 0
DWIDTH 16 0
BBX 16 19 0 0
BITMAP
07F0
3FFC
7CFE
FCFF
FCFF
FC9F
FC9F
FCFF
FCFF
FCFF
FCFF
FC0F
FC0F
FFFF
FFFF
FFFF
7FFE
3FFE
1FF8
ENDCHAR
STARTCHAR ldot
ENCODING 320
SWIDTH 578 0
DWIDTH 16 0
BBX 16 19 0 0
BITMAP
07F0
3FFC
7CFE
FCFF
FCFF
FC9F
FC9F
FCFF
FCFF
FCFF
FCFF
FC0F
FC0F
FFFF
FFFF
FFFF
7FFE
3FFE
1FF8
ENDCHAR
STARTCHAR Lslash
ENCODING 321
SWIDTH 578 0
DWIDTH 16 0
BBX 16 19 0 0
BITMAP
07F0
3FFC
7CFE
FCFF
FCFF
FD7F
FCFF
F0FF
FCFF
FCFF
FCFF
FC0F
FC0F
FFFF
FFFF
FFFF
7FFE
3FFE
1FF8
ENDCHAR
STARTCHAR lslash
ENCODING 322
SWIDTH 578 0
DWIDTH 16 0
BBX 16 19 0 0
BITMAP
07F0
3FFC
7CFE
FCFF
FCFF
FD7F
FCFF
F0FF
FCFF
FCFF
FCFF
FC0F
FC0F
FFFF
FFFF
FFFF
7FFE
3FFE
1FF8
ENDCHAR
STARTCHAR Nacute
ENCODING 323
SWIDTH 578 0
DWIDTH 16 0
BBX 16 27 0 0
BITMAP
01F8
03F8
03BC
03B8
0778
0770
0770
07E0
07F0
3FFC
7006
F3E7
F3E7
F3E7
F3E7
F3E7
F3E7
F3E7
F3E7
F3E7
F3E7
FFFF
FFFF
FFFF
7FFE
3FFE
1FF8
ENDCHAR
STARTCHAR nacute
ENCODING 324
SWIDTH 578 0
DWIDTH 16 0
BBX 16 27 0 0
BITMAP
01F8
03F8
03BC
03B8
0778
0770
0770
07E0
07F0
3FFC
7006
F3E7
F3E7
F3E7
F3E7
F3E7
F3E7
F3E7
F3E7
F3E7
F3E7
FFFF
FFFF
FFFF
7FFE
3FFE
1FF8
ENDCHAR
STARTCHAR Ncommaaccent
ENCODING 325
SWIDTH 578 0
DWIDTH 16 0
BBX 16 19 0 0
BITMAP
07F0
3FFC
7006
F3E7
F3E7
F3E7
F3E7
F3E7
F3E7
F3E7
F3E7
F3E7
F3E7
FFFF
FF3F
FFBF
7F3E
3FFE
1FF8
ENDCHAR
STARTCHAR ncommaaccent
ENCODING 326
SWIDTH 578 0
DWIDTH 16 0
BBX 16 19 0 0
BITMAP
07F0
3FFC
7006
F3E7
F3E7
F3E7
F3E7
F3E7
F3E7
F3E7
F3E7
F3E7
F3E7
FFFF
FF3F
FFBF
7F3E
3FFE
1FF8
ENDCHAR
STARTCHAR Ncaron
ENCODING 327
SWIDTH 578 0
DWIDTH 16 0
BBX 16 26 0 0
BITMAP
0FF0
1FF8
1DB8
1DB8
1EB8
0EF8
0E70
0FF0
3FFC
7006
F3E7
F3E7
F3E7
F3E7
F3E7
F3E7
F3E7
F3E7
F3E7
F3E7
FFFF
FFFF
FFFF
7FFE
3FFE
1FF8
ENDCHAR
STARTCHAR ncaron
ENCODING 328
SWIDTH 578 0
DWIDTH 16 0
BBX 16 26 0 0
BITMAP
0FF0
1FF8
1DB8
1DB8
1EB8
0EF8
0E70
0FF0
3FFC
7006
F3E7
F3E7
F3E7
F3E7
F3E7
F3E7
F3E7
F3E7
F3E7
F3E7
FFFF
FFFF
FFFF
7FFE
3FFE
1FF8
ENDCHAR
STARTCHAR napostrophe
ENCODING 329
SWIDTH 578 0
DWIDTH 16 0
BBX 16 19 0 0
BITMAP
07F0
3FFC
7006
93E7
93E7
D3E7
F3E7
F3E7
F3E7
F3E7
F3E7
F3E7
F3E7
FFFF
FFFF
FFFF
7FFE
3FFE
1FF8
ENDCHAR
STARTCHAR Eng
ENCODING 330
SWIDTH 578 0
DWIDTH 16 0
BBX 16 19 0 0
BITMAP
07F0
3FFC
7006
F3E7
F3E7
F3E7
F3E7
F3E7
F3E7
F3E7
F3E7
F3E7
F3E7
FFE7
FFE7
FF07
7F0E
3FFE
1FF8
ENDCHAR
STARTCHAR eng
ENCODING 331
SWIDTH 578 0
DWIDTH 16 0
BBX 16 19 0 0
BITMAP
07F0
3FFC
7006
F3E7
F3E7
F3E7
F3E7
F3E7
F3E7
F3E7
F3E7
F3E7
F3E7
FFE7
FFE7
FF07
7F0E
3FFE
1FF8
ENDCHAR
STARTCHAR Omacron
ENCODING 332
SWIDTH 578 0
DWIDTH 16 0
BBX 16 26 0 0
BITMAP
07F0
0FFC
1FFC
1FFE
1C1E
1FFE
1FFC
0FF8
3FFC
7806
F3F7
F3F7
F3F7
F3F7
F3F7
F3F7
F3F7
F3F7
F807
F80F
FFFF
FFFF
FFFF
7FFE
3FFE
1FF8
ENDCHAR
STARTCHAR omacron
ENCODING 333
SWIDTH 578 0
DWIDTH 16 0
BBX 16 26 0 0
BITMAP
07F0
0FFC
1FFC
1FFE
1C1E
1FFE
1FFC
0FF8
3FFC
7806
F3F7
F3F7
F3F7
F3F7
F3F7
F3F7
F3F7
F3F7
F807
F80F
FFFF
FFFF
FFFF
7FFE
3FFE
1FF8
ENDCHAR
STARTCHAR Obreve
ENCODING 334
SWIDTH 578 0
DWIDTH 16 0
BBX 16 26 0 0
BITMAP
07F0
0FFC
1FFC
1FFE
1CDE
1E1E
1FFC
0FF8
3FFC
7806
F3F7
F3F7
F3F7
F3F7
F3F7
F3F7
F3F7
F3F7
F807
F80F
FFFF
FFFF
FFFF
7FFE
3FFE
1FF8
ENDCHAR
STARTCHAR obreve
ENCODING 335
SWIDTH 578 0
DWIDTH 16 0
BBX 16 26 0 0
BITMAP
07F0
0FFC
1FFC
1FFE
1CDE
1E1E
1FFC
0FF8
3FFC
7806
F3F7
F3F7
F3F7
F3F7
F3F7
F3F7
F3F7
F3F7
F807
F80F
FFFF
FFFF
FFFF
7FFE
3FFE
1FF8
ENDCHAR
STARTCHAR Ohungarumlaut
ENCODING 336
SWIDTH 578 0
DWIDTH 16 0
BBX 16 27 0 0
BITMAP
006C
01FE
01FE
03B3
03B7
076E
07EE
0EDC
0FF8
3FFC
7806
F3F7
F3F7
F3F7
F3F7
F3F7
F3F7
F3F7
F3F7
F807
F80F
FFFF
FFFF
FFFF
7FFE
3FFE
1FF8
ENDCHAR
STARTCHAR ohungarumlaut
ENCODING 337
SWIDTH 578 0
DWIDTH 16 0
BBX 16 27 0 0
BITMAP
006C
01FE
01FE
03B3
03B7
076E
07EE
0EDC
0FF8
3FFC
7806
F3F7
F3F7
F3F7
F3F7
F3F7
F3F7
F3F7
F3F7
F807
F80F
FFFF
FFFF
FFFF
7FFE
3FFE
1FF8
ENDCHAR
STARTCHAR OE
ENCODING 338
SWIDTH 578 0
DWIDTH 16 0
BBX 16 19 0 0
BITMAP
07F0
3FFC
6006
E73F
E73F
E73F
E707
E707
E73F
E73F
E73F
E007
F087
FFFF
FFFF
FFFF
7FFE
3FFE
1FF8
ENDCHAR
STARTCHAR oe
ENCODING 339
SWIDTH 578 0
DWIDTH 16 0
BBX 16 19 0 0
BITMAP
07F0
3FFC
6006
E73F
E73F
E73F
E707
E707
E73F
E73F
E73F
E007
F087
FFFF
FFFF
FFFF
7FFE
3FFE
1FF8
ENDCHAR
STARTCHAR Racute
ENCODING 340
SWIDTH 578 0
DWIDTH 16 0
BBX 16 26 0 0
BITMAP
01F8
03F8
03BC
03B8
0778
0770
0770
07F0
3FFC
780E
FBEF
FBEF
FBEF
FBCF
F83F
FBCF
FBEF
FBEF
FBEF
FBEF
FFFF
FFFF
FFFF
7FFE
3FFE
1FF8
ENDCHAR
STARTCHAR racute
ENCODING 341
SWIDTH 578 0
DWIDTH 16 0
BBX 16 26 0 0
BITMAP
01F8
03F8
03BC
03B8
0778
0770
0770
07F0
3FFC
780E
FBEF
FBEF
FBEF
FBCF
F83F
FBCF
FBEF
FBEF
FBEF
FBEF
FFFF
FFFF
FFFF
7FFE
3FFE
1FF8
ENDCHAR
STARTCHAR Rcommaaccent
ENCODING 342
SWIDTH 578 0
DWIDTH 16 0
BBX 16 19 0 0
BITMAP
07F0
3FFC
780E
FBEF
FBEF
FBEF
FBCF
F83F
FBCF
FBEF
FBEF
FBEF
FBEF
FFFF
FF3F
FFBF
7F3E
3FFE
1FF8
ENDCHAR
STARTCHAR rcommaaccent
ENCODING 343
SWIDTH 578 0
DWIDTH 16 0
BBX 16 19 0 0
BITMAP
07F0
3FFC
780E
FBEF
FBEF
FBEF
FBCF
F83F
FBCF
FBEF
FBEF
FBEF
FBEF
FFFF
FF3F
FFBF
7F3E
3FFE
1FF8
ENDCHAR
STARTCHAR Rcaron
ENCODING 344
SWIDTH 578 0
DWIDTH 16 0
BBX 16 26 0 0
BITMAP
0FF0
1FF8
1DB8
1DB8
1EB8
0EF8
0E70
0FF0
3FFC
780E
FBEF
FBEF
FBEF
FBCF
F83F
FBCF
FBEF
FBEF
FBEF
FBEF
FFFF
FFFF
FFFF
7FFE
3FFE
1FF8
ENDCHAR
STARTCHAR rcaron
ENCODING 345
SWIDTH 578 0
DWIDTH 16 0
BBX 16 26 0 0
BITMAP
0FF0
1FF8
1DB8
1DB8
1EB8
0EF8
0E70
0FF0
3FFC
780E
FBEF
FBEF
FBEF
FBCF
F83F
FBCF
FBEF
FBEF
FBEF
FBEF
FFFF
FFFF
FFFF
7FFE
3FFE
1FF8
ENDCHAR
STARTCHAR Sacute
ENCODING 346
SWIDTH 578 0
DWIDTH 16 0
BBX 16 26 0 0
BITMAP
01F8
01FC
039C
03BC
03B8
0338
0770
07F0
3FFC
780E
FBFF
FBFF
FBFF
F80F
FC07
FFE7
FFE7
FFE7
F807
F80F
FFFF
FFFF
FFFF
7FFE
3FFE
1FF8
ENDCHAR
STARTCHAR sacute
ENCODING 347
SWIDTH 578 0
DWIDTH 16 0
BBX 16 26 0 0
BITMAP
01F8
01FC
039C
03BC
03B8
0338
0770
07F0
3FFC
780E
FBFF
FBFF
FBFF
F80F
FC07
FFE7
FFE7
FFE7
F807
F80F
FFFF
FFFF
FFFF
7FFE
3FFE
1FF8
ENDCHAR
STARTCHAR Scircumflex
ENCODING 348
SWIDTH 578 0
DWIDTH 16 0
BBX 16 27 0 0
BITMAP
01E0
03F0
03F0
07B8
07B8
0ED8
0EDC
0FFC
0FFC
3FFC
780E
FBFF
FBFF
FBFF
F80F
FC07
FFE7
FFE7
FFE7
F807
F80F
FFFF
FFFF
FFFF
7FFE
3FFE
1FF8
ENDCHAR
STARTCHAR scircumflex
ENCODING 349
SWIDTH 578 0
DWIDTH 16 0
BBX 16 27 0 0
BITMAP
01E0
03F0
03F0
07B8
07B8
0ED8
0EDC
0FFC
0FFC
3FFC
780E
FBFF
FBFF
FBFF
F80F
FC07
FFE7
FFE7
FFE7
F807
F80F
FFFF
FFFF
FFFF
7FFE
3FFE
1FF8
ENDCHAR
STARTCHAR Scedilla
ENCODING 350
SWIDTH 578 0
DWIDTH 16 0
BBX 16 19 0 0
BITMAP
07F0
3FFC
780E
FBFF
FBFF
FBFF
F80F
FC07
FFE7
FFE7
FFE7
F807
F80F
FFFF
FEFF
FEFF
7E3E
3FFE
1FF8
ENDCHAR
STARTCHAR scedilla
ENCODING 351
SWIDTH 578 0
DWIDTH 16 0
BBX 16 19 0 0
BITMAP
07F0
3FFC
780E
FBFF
FBFF
FBFF
F80F
FC07
FFE7
FFE7
FFE7
F807
F80F
FFFF
FEFF
FEFF
7E3E
3FFE
1FF8
ENDCHAR
STARTCHAR Scaron
ENCODING 352
SWIDTH 578 0
DWIDTH 16 0
BBX 16 26 0 0
BITMAP
07F8
0FFC
0EDC
0EDC
0EDC
07B8
0738
07F8
3FFC
780E
FBFF
FBFF
FBFF
F80F
FC07
FFE7
FFE7
FFE7
F807
F80F
FFFF
FFFF
FFFF
7FFE
3FFE
1FF8
ENDCHAR
STARTCHAR scaron
ENCODING 353
SWIDTH 578 0
DWIDTH 16 0
BBX 16 26 0 0
BITMAP
07F8
0FFC
0EDC
0EDC
0EDC
07B8
0738
07F8
3FFC
780E
FBFF
FBFF
FBFF
F80F
FC07
FFE7
FFE7
FFE7
F807
F80F
FFFF
FFFF
FFFF
7FFE
3FFE
1FF8
ENDCHAR
STARTCHAR Tcommaaccent
ENCODING 354
SWIDTH 578 0
DWIDTH 16 0
BBX 16 19 0 0
BITMAP
07F0
3FFC
7806
FF3F
FF3F
FF3F
FF3F
FF3F
FF3F
FF3F
FF3F
FF3F
FF3F
FFFF
FF3F
FFBF
7F3E
3FFE
1FF8
ENDCHAR
STARTCHAR tcommaaccent
ENCODING 355
SWIDTH 578 0
DWIDTH 16 0
BBX 16 19 0 0
BITMAP
07F0
3FFC
7806
FF3F
FF3F
FF3F
FF3F
FF3F
FF3F
FF3F
FF3F
FF3F
FF3F
FFFF
FF3F
FFBF
7F3E
3FFE
1FF8
ENDCHAR
STARTCHAR Tcaron
ENCODING 356
SWIDTH 578 0
DWIDTH 16 0
BBX 16 26 0 0
BITMAP
0FF8
0FFC
0DDC
0EDC
0EB8
0EB8
0778
07F0
3FFC
7806
FF3F
FF3F
FF3F
FF3F
FF3F
FF3F
FF3F
FF3F
FF3F
FF3F
FFFF
FFFF
FFFF
7FFE
3FFE
1FF8
ENDCHAR
STARTCHAR tcaron
ENCODING 357
SWIDTH 578 0
DWIDTH 16 0
BBX 16 19 0 0
BITMAP
07F0
3FFC
7806
FF3F
FF27
FF37
FF2F
FF3F
FF3F
FF3F
FF3F
FF3F
FF3F
FFFF
FFFF
FFFF
7FFE
3FFE
1FF8
ENDCHAR
STARTCHAR Tbar
ENCODING 358
SWIDTH 578 0
DWIDTH 16 0
BBX 16 19 0 0
BITMAP
07F0
3FFC
7806
FF3F
FF3F
FF3F
FF3F
FC1F
FF3F
FF3F
FF3F
FF3F
FF3F
FFFF
FFFF
FFFF
7FFE
3FFE
1FF8
ENDCHAR
STARTCHAR tbar
ENCODING 359
SWIDTH 578 0
DWIDTH 16 0
BBX 16 19 0 0
BITMAP
07F0
3FFC
7806
FF3F
FF3F
FF3F
FF3F
FC1F
FF3F
FF3F
FF3F
FF3F
FF3F
FFFF
FFFF
FFFF
7FFE
3FFE
1FF8
ENDCHAR
STARTCHAR Utilde
ENCODING 360
SWIDTH 578 0
DWIDTH 16 0
BBX 16 27 0 0
BITMAP
03F0
0FF8
0FFC
1FFE
1FFE
1CCE
1D1E
1FFC
0FFC
3FFC
73E6
F3E7
F3E7
F3E7
F3E7
F3E7
F3E7
F3E7
F3E7
F807
F80F
FFFF
FFFF
FFFF
7FFE
3FFE
1FF8
ENDCHAR
STARTCHAR utilde
ENCODING 361
SWIDTH 578 0
DWIDTH 16 0
BBX 16 27 0 0
BITMAP
03F0
0FF8
0FFC
1FFE
1FFE
1CCE
1D0E
1FFC
0FFC
3FFC
73E6
F3E7
F3E7
F3E7
F3E7
F3E7
F3E7
F3E7
F3E7
F807
F80F
FFFF
FFFF
FFFF
7FFE
3FFE
1FF8
ENDCHAR
STARTCHAR Umacron
ENCODING 362
SWIDTH 578 0
DWIDTH 16 0
BBX 16 26 0 0
BITMAP
07F0
0FFC
1FFC
1FFE
1C1E
1FFE
1FFC
0FF8
3FFC
73E6
F3E7
F3E7
F3E7
F3E7
F3E7
F3E7
F3E7
F3E7
F807
F80F
FFFF
FFFF
FFFF
7FFE
3FFE
1FF8
ENDCHAR
STARTCHAR umacron
ENCODING 363
SWIDTH 578 0
DWIDTH 16 0
BBX 16 26 0 0
BITMAP
07F0
0FFC
1FFC
1FFE
1C1E
1FFE
1FFC
0FF8
3FFC
73E6
F3E7
F3E7
F3E7
F3E7
F3E7
F3E7
F3E7
F3E7
F807
F80F
FFFF
FFFF
FFFF
7FFE
3FFE
1FF8
ENDCHAR
STARTCHAR Ubreve
ENCODING 364
SWIDTH 578 0
DWIDTH 16 0
BBX 16 26 0 0
BITMAP
07F0
0FFC
1FFC
1FFE
1CDE
1E1E
1FFC
0FF8
3FFC
73E6
F3E7
F3E7
F3E7
F3E7
F3E7
F3E7
F3E7
F3E7
F807
F80F
FFFF
FFFF
FFFF
7FFE
3FFE
1FF8
ENDCHAR
STARTCHAR ubreve
ENCODING 365
SWIDTH 578 0
DWIDTH 16 0
BBX 16 26 0 0
BITMAP
07F0
0FFC
1FFC
1FFE
1CDE
1E1E
1FFC
0FF8
3FFC
73E6
F3E7
F3E7
F3E7
F3E7
F3E7
F3E7
F3E7
F3E7
F807
F80F
FFFF
FFFF
FFFF
7FFE
3FFE
1FF8
ENDCHAR
STARTCHAR Uring
ENCODING 366
SWIDTH 578 0
DWIDTH 16 0
BBX 16 27 0 0
BITMAP
00C0
07F0
0FF8
0E18
1DDC
1DDC
0E1C
0FFC
0FF8
3FFC
73E6
F3E7
F3E7
F3E7
F3E7
F3E7
F3E7
F3E7
F3E7
F807
F80F
FFFF
FFFF
FFFF
7FFE
3FFE
1FF8
ENDCHAR
STARTCHAR uring
ENCODING 367
SWIDTH 578 0
DWIDTH 16 0
BBX 16 27 0 0
BITMAP
00C0
07F0
0FF8
0E1C
0DDC
1DDC
0E1C
0FFC
0FF8
3FFC
73E6
F3E7
F3E7
F3E7
F3E7
F3E7
F3E7
F3E7
F3E7
F807
F80F
FFFF
FFFF
FFFF
7FFE
3FFE
1FF8
ENDCHAR
STARTCHAR Uhungarumlaut
ENCODING 368
SWIDTH 581 0
DWIDTH 16 0
BBX 16 27 0 0
BITMAP
006C
01FE
01FE
03B3
03B7
076F
076E
0EDC
07FC
3FFC
73E6
F3E7
F3E7
F3E7
F3E7
F3E7
F3E7
F3E7
F3E7
F807
F80F
FFFF
FFFF
FFFF
7FFE
3FFE
1FF8
ENDCHAR
STARTCHAR uhungarumlaut
ENCODING 369
SWIDTH 582 0
DWIDTH 16 0
BBX 16 27 0 0
BITMAP
006C
01FE
01FE
039B
03B7
076F
076E
0EDC
07FC
3FFC
73E6
F3E7
F3E7
F3E7
F3E7
F3E7
F3E7
F3E7
F3E7
F807
F80F
FFFF
FFFF
FFFF
7FFE
3FFE
1FF8
ENDCHAR
STARTCHAR Uogonek
ENCODING 370
SWIDTH 578 0
DWIDTH 16 0
BBX 16 19 0 0
BITMAP
07F0
3FFC
73E6
F3E7
F3E7
F3E7
F3E7
F3E7
F3E7
F3E7
F3E7
F807
F80F
FFBF
FF7F
FE7F
7F3E
3FFE
1FF8
ENDCHAR
STARTCHAR uogonek
ENCODING 371
SWIDTH 578 0
DWIDTH 16 0
BBX 16 19 0 0
BITMAP
07F0
3FFC
73E6
F3E7
F3E7
F3E7
F3E7
F3E7
F3E7
F3E7
F3E7
F807
F80F
FFBF
FF7F
FE7F
7F3E
3FFE
1FF8
ENDCHAR
STARTCHAR Wcircumflex
ENCODING 372
SWIDTH 578 0
DWIDTH 16 0
BBX 16 27 0 0
BITMAP
03C0
03E0
07F0
06F0
0EB8
0EB8
1DB8
1FF8
0FF8
3FFC
6772
E773
E633
E637
F6B7
F6B7
F6B7
F4B7
F497
F087
F9CF
FFFF
FFFF
FFFF
7FFE
3FFE
1FF8
ENDCHAR
STARTCHAR wcircumflex
ENCODING 373
SWIDTH 578 0
DWIDTH 16 0
BBX 16 27 0 0
BITMAP
03C0
03E0
07F0
06F0
0EB8
0EB8
1DB8
1FF8
0FF8
3FFC
6772
E773
E633
E637
F6B7
F6B7
F6B7
F4B7
F497
F087
F9CF
FFFF
FFFF
FFFF
7FFE
3FFE
1FF8
ENDCHAR
STARTCHAR Ycircumflex
ENCODING 374
SWIDTH 578 0
DWIDTH 16 0
BBX 16 27 0 0
BITMAP
01E0
03F0
07F0
07B0
0EB8
0EB8
0EDC
0FFC
0FF8
3FFC
79EE
F9CF
FDCF
FCDF
FE9F
FEBF
FF3F
FF7F
FF7F
FF7F
FF7F
FFFF
FFFF
FFFF
7FFE
3FFE
1FF8
ENDCHAR
STARTCHAR ycircumflex
ENCODING 375
SWIDTH 578 0
DWIDTH 16 0
BBX 16 27 0 0
BITMAP
01E0
03F0
07F0
07B0
0EB8
0EB8
0EDC
0FFC
0FF8
3FFC
79EE
F9CF
FDCF
FCDF
FE9F
FEBF
FF3F
FF7F
FF7F
FF7F
FF7F
FFFF
FFFF
FFFF
7FFE
3FFE
1FF8
ENDCHAR
STARTCHAR Ydieresis
ENCODING 376
SWIDTH 578 0
DWIDTH 16 0
BBX 16 25 0 0
BITMAP
03F0
0FF8
0FFC
1CDC
1CDC
1FFC
0FF8
3FFC
79EE
F9CF
FDCF
FCDF
FE9F
FEBF
FF3F
FF7F
FF7F
FF7F
FF7F
FFFF
FFFF
FFFF
7FFE
3FFE
1FF8
ENDCHAR
STARTCHAR Zacute
ENCODING 377
SWIDTH 578 0
DWIDTH 16 0
BBX 16 27 0 0
BITMAP
03F0
03F8
0738
0778
0770
0EF0
0EE0
07C0
07F0
3FFC
780E
FFDF
FF9F
FFBF
FF3F
FE7F
FE7F
FCFF
FDFF
F80F
F80F
FFFF
FFFF
FFFF
7FFE
3FFE
1FF8
ENDCHAR
STARTCHAR zacute
ENCODING 378
SWIDTH 578 0
DWIDTH 16 0
BBX 16 27 0 0
BITMAP
03F0
03F8
0738
0778
0770
0EF0
0EE0
07C0
07F0
3FFC
780E
FFDF
FF9F
FFBF
FF3F
FE7F
FE7F
FCFF
FDFF
F80F
F80F
FFFF
FFFF
FFFF
7FFE
3FFE
1FF8
ENDCHAR
STARTCHAR Zdotaccent
ENCODING 379
SWIDTH 578 0
DWIDTH 16 0
BBX 16 26 0 0
BITMAP
07E0
1FF8
3FFC
3FFC
3E7C
3FFC
1FFC
1FF8
3FFC
780E
FFDF
FF9F
FFBF
FF3F
FE7F
FE7F
FCFF
FDFF
F80F
F80F
FFFF
FFFF
FFFF
7FFE
3FFE
1FF8
ENDCHAR
STARTCHAR zdotaccent
ENCODING 380
SWIDTH 578 0
DWIDTH 16 0
BBX 16 26 0 0
BITMAP
07E0
1FF8
3FFC
3FFC
3E7C
3FFC
1FFC
1FF8
3FFC
780E
FFDF
FF9F
FFBF
FF3F
FE7F
FE7F
FCFF
FDFF
F80F
F80F
FFFF
FFFF
FFFF
7FFE
3FFE
1FF8
ENDCHAR
STARTCHAR Zcaron
ENCODING 381
SWIDTH 578 0
DWIDTH 16 0
BBX 16 26 0 0
BITMAP
0F78
1FF8
1DD8
1DB8
0EB8
0EF8
0F78
07F0
3FFC
780E
FFDF
FF9F
FFBF
FF3F
FE7F
FE7F
FCFF
FDFF
F80F
F80F
FFFF
FFFF
FFFF
7FFE
3FFE
1FF8
ENDCHAR
STARTCHAR zcaron
ENCODING 382
SWIDTH 578 0
DWIDTH 16 0
BBX 16 26 0 0
BITMAP
0F78
1FF8
1DD8
1DB8
0EB8
0EF8
0F78
07F0
3FFC
780E
FFDF
FF9F
FFBF
FF3F
FE7F
FE7F
FCFF
FDFF
F80F
F80F
FFFF
FFFF
FFFF
7FFE
3FFE
1FF8
ENDCHAR
STARTCHAR longs
ENCODING 383
SWIDTH 578 0
DWIDTH 16 0
BBX 16 19 0 0
BITMAP
07F0
3FFC
7E3E
F9CF
FBEF
F7F7
F777
F777
FB6F
F94F
FF7F
FF7F
FFFF
FFFF
FFFF
FFFF
7FFE
3FFE
1FF8
ENDCHAR
STARTCHAR florin
ENCODING 402
SWIDTH 578 0
DWIDTH 16 0
BBX 16 19 0 0
BITMAP
07F0
3FFC
7E1E
FEFF
FEFF
FEFF
F83F
F83F
FEFF
FEFF
FEFF
FEFF
FEFF
FEFF
F8FF
FFFF
7FFE
3FFE
1FF8
ENDCHAR
STARTCHAR uni01CD
ENCODING 461
SWIDTH 578 0
DWIDTH 16 0
BBX 16 26 0 0
BITMAP
0F78
0FF8
0DDC
0EBC
0EB8
0EB8
0F78
07F0
3FFC
780E
FBEF
FBEF
FBEF
FBEF
F80F
F807
F3E7
F3E7
F3E7
F3E7
FFFF
FFFF
FFFF
7FFE
3FFE
1FF8
ENDCHAR
STARTCHAR uni01CE
ENCODING 462
SWIDTH 578 0
DWIDTH 16 0
BBX 16 26 0 0
BITMAP
07F8
0FFC
0EDC
0EDC
0EBC
0FB8
0738
07F8
3FFC
780E
FFCF
FFEF
FFEF
FFEF
F80F
F3EF
F7EF
F3EF
F00F
F80F
FFFF
FFFF
FFFF
7FFE
3FFE
1FF8
ENDCHAR
STARTCHAR uni01CF
ENCODING 463
SWIDTH 578 0
DWIDTH 16 0
BBX 16 26 0 0
BITMAP
07F8
0FFC
0EDC
0EDC
0EFC
07B8
0738
07F8
3FFC
7806
FF3F
FF3F
FF3F
FF3F
FF3F
FF3F
FF3F
FF3F
F807
F807
FFFF
FFFF
FFFF
7FFE
3FFE
1FF8
ENDCHAR
STARTCHAR uni01D0
ENCODING 464
SWIDTH 578 0
DWIDTH 16 0
BBX 16 26 0 0
BITMAP
07F8
0FFC
0EDC
0EDC
0EBC
0FB8
0738
07F8
3FFC
7806
FF3F
FF3F
FF3F
FF3F
FF3F
FF3F
FF3F
FF3F
F807
F807
FFFF
FFFF
FFFF
7FFE
3FFE
1FF8
ENDCHAR
STARTCHAR uni01D1
ENCODING 465
SWIDTH 578 0
DWIDTH 16 0
BBX 16 26 0 0
BITMAP
07F8
0FFC
0CDC
0EDC
0EBC
0FB8
0738
07F8
3FFC
7806
F3F7
F3F7
F3F7
F3F7
F3F7
F3F7
F3F7
F3F7
F807
F80F
FFFF
FFFF
FFFF
7FFE
3FFE
1FF8
ENDCHAR
STARTCHAR uni01D3
ENCODING 467
SWIDTH 578 0
DWIDTH 16 0
BBX 16 26 0 0
BITMAP
07F8
0FFC
0EDC
0EDC
0EBC
0FB8
0738
07F8
3FFC
73E6
F3E7
F3E7
F3E7
F3E7
F3E7
F3E7
F3E7
F3E7
F807
F80F
FFFF
FFFF
FFFF
7FFE
3FFE
1FF8
ENDCHAR
STARTCHAR uni01D4
ENCODING 468
SWIDTH 578 0
DWIDTH 16 0
BBX 16 26 0 0
BITMAP
07F8
0FFC
0EDC
0EDC
0EBC
0FB8
0738
07F8
3FFC
73E6
F3E7
F3E7
F3E7
F3E7
F3E7
F3E7
F3E7
F3E7
F807
F80F
FFFF
FFFF
FFFF
7FFE
3FFE
1FF8
ENDCHAR
STARTCHAR uni0200
ENCODING 512
SWIDTH 578 0
DWIDTH 16 0
BBX 16 27 0 0
BITMAP
1F80
1FC0
3FE0
36E0
7B70
3B70
1DB8
1DF8
0FF8
3FFC
780E
FBEF
FBEF
FBEF
FBEF
F80F
F807
F3E7
F3E7
F3E7
F3E7
FFFF
FFFF
FFFF
7FFE
3FFE
1FF8
ENDCHAR
STARTCHAR uni0201
ENCODING 513
SWIDTH 578 0
DWIDTH 16 0
BBX 16 27 0 0
BITMAP
1F80
1FC0
3FE0
36E0
7B70
3B70
1DB8
1DF8
0FF8
3FFC
780E
FFCF
FFEF
FFEF
FFEF
F80F
F3EF
F7EF
F3EF
F00F
F80F
FFFF
FFFF
FFFF
7FFE
3FFE
1FF8
ENDCHAR
STARTCHAR uni0202
ENCODING 514
SWIDTH 578 0
DWIDTH 16 0
BBX 16 26 0 0
BITMAP
03E0
0FF8
1FFC
1FFC
3C1E
1DDC
1FFC
0FF8
3FFC
780E
FBEF
FBEF
FBEF
FBEF
F80F
F807
F3E7
F3E7
F3E7
F3E7
FFFF
FFFF
FFFF
7FFE
3FFE
1FF8
ENDCHAR
STARTCHAR uni0203
ENCODING 515
SWIDTH 578 0
DWIDTH 16 0
BBX 16 26 0 0
BITMAP
03E0
0FF8
1FFC
1FFC
3C1E
1DDC
1FFC
0FF8
3FFC
780E
FFCF
FFEF
FFEF
FFEF
F80F
F3EF
F7EF
F3EF
F00F
F80F
FFFF
FFFF
FFFF
7FFE
3FFE
1FF8
ENDCHAR
STARTCHAR uni0204
ENCODING 516
SWIDTH 578 0
DWIDTH 16 0
BBX 16 27 0 0
BITMAP
1F80
1FC0
3FE0
36E0
7B70
3B70
1DB8
1DF8
0FF8
3FFC
7C0E
FDFF
FDFF
FDFF
FC1F
FC1F
FDFF
FDFF
FDFF
FC0F
FC0F
FFFF
FFFF
FFFF
7FFE
3FFE
1FF8
ENDCHAR
STARTCHAR uni0205
ENCODING 517
SWIDTH 578 0
DWIDTH 16 0
BBX 16 27 0 0
BITMAP
1F80
1FC0
3FE0
36E0
7B70
3B70
1DB8
1DF8
0FF8
3FFC
700E
F3CF
F3EF
F3EF
F00F
F3FF
F3FF
F3FF
F3FF
F81F
FFFF
FFFF
FFFF
FFFF
7FFE
3FFE
1FF8
ENDCHAR
STARTCHAR uni0206
ENCODING 518
SWIDTH 578 0
DWIDTH 16 0
BBX 16 26 0 0
BITMAP
03E0
0FF8
1FFC
1FFC
3C1E
1DDC
1FFC
0FF8
3FFC
7C0E
FDFF
FDFF
FDFF
FC1F
FC1F
FDFF
FDFF
FDFF
FC0F
FC0F
FFFF
FFFF
FFFF
7FFE
3FFE
1FF8
ENDCHAR
STARTCHAR uni0207
ENCODING 519
SWIDTH 578 0
DWIDTH 16 0
BBX 16 26 0 0
BITMAP
03E0
0FF8
1FFC
1FFC
3C1E
1DDC
1FFC
0FF8
3FFC
700E
F3CF
F3EF
F3EF
F00F
F3FF
F3FF
F3FF
F3FF
F81F
FFFF
FFFF
FFFF
FFFF
7FFE
3FFE
1FF8
ENDCHAR
STARTCHAR uni0208
ENCODING 520
SWIDTH 578 0
DWIDTH 16 0
BBX 16 27 0 0
BITMAP
1F80
1FC0
3FE0
36E0
7B70
3B70
1DB8
1DF8
0FF8
3FFC
7806
FF3F
FF3F
FF3F
FF3F
FF3F
FF3F
FF3F
FF3F
F807
F807
FFFF
FFFF
FFFF
7FFE
3FFE
1FF8
ENDCHAR
STARTCHAR uni0209
ENCODING 521
SWIDTH 578 0
DWIDTH 16 0
BBX 16 27 0 0
BITMAP
1F80
1FC0
3FE0
36E0
7B70
3B70
1DB8
1DF8
0FF8
3FFC
7806
FF3F
FF3F
FF3F
FF3F
FF3F
FF3F
FF3F
FF3F
F807
F807
FFFF
FFFF
FFFF
7FFE
3FFE
1FF8
ENDCHAR
STARTCHAR uni020A
ENCODING 522
SWIDTH 578 0
DWIDTH 16 0
BBX 16 26 0 0
BITMAP
03E0
0FF8
1FFC
1FFC
3C1E
1DDC
1FFC
0FF8
3FFC
7806
FF3F
FF3F
FF3F
FF3F
FF3F
FF3F
FF3F
FF3F
F807
F807
FFFF
FFFF
FFFF
7FFE
3FFE
1FF8
ENDCHAR
STARTCHAR uni020B
ENCODING 523
SWIDTH 578 0
DWIDTH 16 0
BBX 16 26 0 0
BITMAP
03E0
0FF8
1FFC
1FFC
3C1E
1DDC
1FFC
0FF8
3FFC
7806
FF3F
FF3F
FF3F
FF3F
FF3F
FF3F
FF3F
FF3F
F807
F807
FFFF
FFFF
FFFF
7FFE
3FFE
1FF8
ENDCHAR
STARTCHAR uni020C
ENCODING 524
SWIDTH 578 0
DWIDTH 16 0
BBX 16 27 0 0
BITMAP
1F80
1FC0
3FE0
36E0
7B70
3B70
1DB8
1DF8
0FF8
3FFC
7806
F3F7
F3F7
F3F7
F3F7
F3F7
F3F7
F3F7
F3F7
F807
F80F
FFFF
FFFF
FFFF
7FFE
3FFE
1FF8
ENDCHAR
STARTCHAR uni020D
ENCODING 525
SWIDTH 578 0
DWIDTH 16 0
BBX 16 27 0 0
BITMAP
1F80
1FC0
3FE0
36E0
7B70
3B70
1DB8
1DF8
0FF8
3FFC
7806
F3F7
F3F7
F3F7
F3F7
F3F7
F3F7
F3F7
F3F7
F807
F80F
FFFF
FFFF
FFFF
7FFE
3FFE
1FF8
ENDCHAR
STARTCHAR uni020E
ENCODING 526
SWIDTH 578 0
DWIDTH 16 0
BBX 16 26 0 0
BITMAP
03E0
0FF8
1FFC
1FFC
3C1E
1DDC
1FFC
0FF8
3FFC
7806
F3F7
F3F7
F3F7
F3F7
F3F7
F3F7
F3F7
F3F7
F807
F80F
FFFF
FFFF
FFFF
7FFE
3FFE
1FF8
ENDCHAR
STARTCHAR uni020F
ENCODING 527
SWIDTH 578 0
DWIDTH 16 0
BBX 16 26 0 0
BITMAP
03E0
0FF8
1FFC
1FFC
3C1E
1DDC
1FFC
0FF8
3FFC
7806
F3F7
F3F7
F3F7
F3F7
F3F7
F3F7
F3F7
F3F7
F807
F80F
FFFF
FFFF
FFFF
7FFE
3FFE
1FF8
ENDCHAR
STARTCHAR uni0210
ENCODING 528
SWIDTH 578 0
DWIDTH 16 0
BBX 16 27 0 0
BITMAP
1F80
1FC0
3FE0
36E0
7B70
3B70
1DB8
1DF8
0FF8
3FFC
780E
FBEF
FBEF
FBEF
FBCF
F83F
FBCF
FBEF
FBEF
FBEF
FBEF
FFFF
FFFF
FFFF
7FFE
3FFE
1FF8
ENDCHAR
STARTCHAR uni0211
ENCODING 529
SWIDTH 578 0
DWIDTH 16 0
BBX 16 27 0 0
BITMAP
1F80
1FC0
3FE0
36E0
7B70
3B70
1DB8
1DF8
0FF8
3FFC
780E
FBEF
FBEF
FBEF
FBCF
F83F
FBCF
FBEF
FBEF
FBEF
FBEF
FFFF
FFFF
FFFF
7FFE
3FFE
1FF8
ENDCHAR
STARTCHAR uni0212
ENCODING 530
SWIDTH 578 0
DWIDTH 16 0
BBX 16 26 0 0
BITMAP
03E0
0FF8
1FFC
1FFC
3C1E
1DDC
1FFC
0FF8
3FFC
780E
FBEF
FBEF
FBEF
FBCF
F83F
FBCF
FBEF
FBEF
FBEF
FBEF
FFFF
FFFF
FFFF
7FFE
3FFE
1FF8
ENDCHAR
STARTCHAR uni0213
ENCODING 531
SWIDTH 578 0
DWIDTH 16 0
BBX 16 26 0 0
BITMAP
03E0
0FF8
1FFC
1FFC
3C1E
1DDC
1FFC
0FF8
3FFC
780E
FBEF
FBEF
FBEF
FBCF
F83F
FBCF
FBEF
FBEF
FBEF
FBEF
FFFF
FFFF
FFFF
7FFE
3FFE
1FF8
ENDCHAR
STARTCHAR uni0214
ENCODING 532
SWIDTH 578 0
DWIDTH 16 0
BBX 16 27 0 0
BITMAP
1F80
1FC0
3FE0
36E0
7B70
3B70
1DB8
1DF8
0FF8
3FFC
73E6
F3E7
F3E7
F3E7
F3E7
F3E7
F3E7
F3E7
F3E7
F807
F80F
FFFF
FFFF
FFFF
7FFE
3FFE
1FF8
ENDCHAR
STARTCHAR uni0215
ENCODING 533
SWIDTH 578 0
DWIDTH 16 0
BBX 16 27 0 0
BITMAP
1F80
1FC0
3FE0
36E0
7B70
3B70
1DB8
1DF8
0FF8
3FFC
73E6
F3E7
F3E7
F3E7
F3E7
F3E7
F3E7
F3E7
F3E7
F807
F80F
FFFF
FFFF
FFFF
7FFE
3FFE
1FF8
ENDCHAR
STARTCHAR uni0216
ENCODING 534
SWIDTH 578 0
DWIDTH 16 0
BBX 16 26 0 0
BITMAP
03E0
0FF8
1FFC
1FFC
3C1E
1DDC
1FFC
0FF8
3FFC
73E6
F3E7
F3E7
F3E7
F3E7
F3E7
F3E7
F3E7
F3E7
F807
F80F
FFFF
FFFF
FFFF
7FFE
3FFE
1FF8
ENDCHAR
STARTCHAR uni0217
ENCODING 535
SWIDTH 578 0
DWIDTH 16 0
BBX 16 26 0 0
BITMAP
03E0
0FF8
1FFC
1FFC
3C1E
1DDC
1FFC
0FF8
3FFC
73E6
F3E7
F3E7
F3E7
F3E7
F3E7
F3E7
F3E7
F3E7
F807
F80F
FFFF
FFFF
FFFF
7FFE
3FFE
1FF8
ENDCHAR
STARTCHAR uni0218
ENCODING 536
SWIDTH 578 0
DWIDTH 16 0
BBX 16 19 0 0
BITMAP
07F0
3FFC
780E
FBFF
FBFF
FBFF
F80F
FC07
FFE7
FFE7
FFE7
F807
F80F
FFFF
FF3F
FFBF
7F7E
3FFE
1FF8
ENDCHAR
STARTCHAR uni0219
ENCODING 537
SWIDTH 578 0
DWIDTH 16 0
BBX 16 19 0 0
BITMAP
07F0
3FFC
780E
FBFF
FBFF
FBFF
F80F
FC07
FFE7
FFE7
FFE7
F807
F80F
FFFF
FF3F
FFBF
7F7E
3FFE
1FF8
ENDCHAR
STARTCHAR uni021A
ENCODING 538
SWIDTH 578 0
DWIDTH 16 0
BBX 16 19 0 0
BITMAP
07F0
3FFC
7806
FF3F
FF3F
FF3F
FF3F
FF3F
FF3F
FF3F
FF3F
FF3F
FF3F
FFFF
FF3F
FFBF
7F3E
3FFE
1FF8
ENDCHAR
STARTCHAR uni021B
ENCODING 539
SWIDTH 578 0
DWIDTH 16 0
BBX 16 19 0 0
BITMAP
07F0
3FFC
7806
FF3F
FF3F
FF3F
FF3F
FF3F
FF3F
FF3F
FF3F
FF3F
FF3F
FFFF
FF3F
FFBF
7F3E
3FFE
1FF8
ENDCHAR
STARTCHAR circumflex
ENCODING 710
SWIDTH 355 0
DWIDTH 10 0
BBX 10 9 0 1
BITMAP
1E00
3F00
3F00
7B80
7B80
EDC0
EDC0
FFC0
FFC0
ENDCHAR
STARTCHAR caron
ENCODING 711
SWIDTH 355 0
DWIDTH 10 0
BBX 10 8 0 1
BITMAP
7F80
FFC0
EDC0
EDC0
EDC0
7B80
7380
7F80
ENDCHAR
STARTCHAR breve
ENCODING 728
SWIDTH 428 0
DWIDTH 12 0
BBX 12 8 0 0
BITMAP
1F80
7FE0
FFF0
FFF0
F6F0
F0F0
7FE0
3FC0
ENDCHAR
STARTCHAR dotaccent
ENCODING 729
SWIDTH 428 0
DWIDTH 12 0
BBX 12 8 0 0
BITMAP
1F80
7FE0
FFF0
FFF0
F9F0
FFF0
FFF0
7FE0
ENDCHAR
STARTCHAR ring
ENCODING 730
SWIDTH 368 0
DWIDTH 10 0
BBX 10 9 0 0
BITMAP
0C00
3F80
7F80
E1C0
EDC0
EDC0
E1C0
FFC0
7FC0
ENDCHAR
STARTCHAR ogonek
ENCODING 731
SWIDTH 101 0
DWIDTH 3 0
BBX 3 4 0 -4
BITMAP
60
80
80
E0
ENDCHAR
STARTCHAR tilde
ENCODING 732
SWIDTH 428 0
DWIDTH 12 0
BBX 12 9 0 0
BITMAP
1F80
3FC0
7FE0
FFF0
FFF0
E670
E870
7FE0
7FE0
ENDCHAR
STARTCHAR hungarumlaut
ENCODING 733
SWIDTH 419 0
DWIDTH 12 0
BBX 12 9 0 1
BITMAP
0FC0
1FC0
3FE0
3B60
76F0
76E0
EDC0
FFC0
FF80
ENDCHAR
STARTCHAR uni030F
ENCODING 783
SWIDTH 419 0
DWIDTH 12 0
BBX 12 9 0 1
BITMAP
3700
7F80
7F80
EDC0
ECE0
76E0
7F70
3B70
1FF0
ENDCHAR
STARTCHAR mu
ENCODING 956
SWIDTH 578 0
DWIDTH 16 0
BBX 16 19 0 0
BITMAP
07F0
3FFC
73E6
F3E7
F3E7
F3E7
F3E7
F3E7
F3E7
F3E7
F3E7
F007
F00F
F3FF
FFFF
FFFF
7FFE
3FFE
1FF8
ENDCHAR
STARTCHAR pi
ENCODING 960
SWIDTH 578 0
DWIDTH 16 0
BBX 16 19 0 0
BITMAP
07F0
3F7C
788E
F777
EC9B
DDDB
DDDD
DDDD
DDDD
DBDD
CBDB
EFFB
F7F7
F80F
FFFF
FFFF
7FFE
3FFE
1FF8
ENDCHAR
STARTCHAR uni1E60
ENCODING 7776
SWIDTH 578 0
DWIDTH 16 0
BBX 16 25 0 0
BITMAP
03F0
0FFC
1FFE
1FFE
1F3E
1FFE
1FFE
3FFC
780E
FBFF
FBFF
FBFF
F80F
FC07
FFE7
FFE7
FFE7
F807
F80F
FFFF
FFFF
FFFF
7FFE
3FFE
1FF8
ENDCHAR
STARTCHAR uni1E8E
ENCODING 7822
SWIDTH 578 0
DWIDTH 16 0
BBX 16 25 0 0
BITMAP
07F0
0FFC
1FFC
1FFE
1F3E
1FFE
1FFC
3FFC
79EE
F9CF
FDCF
FCDF
FE9F
FEBF
FF3F
FF7F
FF7F
FF7F
FF7F
FFFF
FFFF
FFFF
7FFE
3FFE
1FF8
ENDCHAR
STARTCHAR uni1E8F
ENCODING 7823
SWIDTH 578 0
DWIDTH 16 0
BBX 16 25 0 0
BITMAP
07F0
0FFC
1FFC
1FFE
1F3E
1FFE
1FFC
3FFC
79EE
F9CF
FDCF
FCDF
FE9F
FEBF
FF3F
FF7F
FF7F
FF7F
FF7F
FFFF
FFFF
FFFF
7FFE
3FFE
1FF8
ENDCHAR
STARTCHAR uni1EBC
ENCODING 7868
SWIDTH 578 0
DWIDTH 16 0
BBX 16 27 0 0
BITMAP
03F0
0FF8
0FFC
1FFE
1FFE
1CCE
1D1E
1FFC
0FFC
3FFC
7C0E
FDFF
FDFF
FDFF
FC1F
FC1F
FDFF
FDFF
FDFF
FC0F
FC0F
FFFF
FFFF
FFFF
7FFE
3FFE
1FF8
ENDCHAR
STARTCHAR uni1EF8
ENCODING 7928
SWIDTH 578 0
DWIDTH 16 0
BBX 16 27 0 0
BITMAP
03E0
0FF8
1FFC
1FFC
1FFE
1CCE
1D1E
1FFC
0FFC
3FFC
79EE
F9CF
FDCF
FCDF
FE9F
FEBF
FF3F
FF7F
FF7F
FF7F
FF7F
FFFF
FFFF
FFFF
7FFE
3FFE
1FF8
ENDCHAR
STARTCHAR uni1EF9
ENCODING 7929
SWIDTH 578 0
DWIDTH 16 0
BBX 16 27 0 0
BITMAP
03E0
0FF8
1FFC
1FFC
1FFE
1CCE
1D1E
1FFC
0FFC
3FFC
79EE
F9CF
FDCF
FCDF
FE9F
FEBF
FF3F
FF7F
FF7F
FF7F
FF7F
FFFF
FFFF
FFFF
7FFE
3FFE
1FF8
ENDCHAR
STARTCHAR endash
ENCODING 8211
SWIDTH 428 0
DWIDTH 12 0
BBX 12 19 0 0
BITMAP
0600
3FC0
7FE0
FFF0
FFF0
E070
FFF0
FFF0
FFF0
FFF0
FFF0
FFF0
FFF0
FFF0
FFF0
FFF0
7FE0
3FC0
1F80
ENDCHAR
STARTCHAR emdash
ENCODING 8212
SWIDTH 428 0
DWIDTH 12 0
BBX 12 19 0 0
BITMAP
0E00
3FC0
7FE0
FFF0
FFF0
0000
FFF0
FFF0
FFF0
FFF0
FFF0
FFF0
FFF0
FFF0
FFF0
FFF0
7FE0
3FC0
1F80
ENDCHAR
STARTCHAR quoteleft
ENCODING 8216
SWIDTH 428 0
DWIDTH 12 0
BBX 12 19 0 0
BITMAP
0600
3FC0
7BE0
F9F0
F9F0
FFF0
FFF0
FFF0
FFF0
FFF0
FFF0
FFF0
FFF0
FFF0
FFF0
FFF0
7FE0
3FC0
1F80
ENDCHAR
STARTCHAR quoteright
ENCODING 8217
SWIDTH 428 0
DWIDTH 12 0
BBX 12 19 0 0
BITMAP
0600
3FC0
79E0
FDF0
FDF0
FFF0
FFF0
FFF0
FFF0
FFF0
FFF0
FFF0
FFF0
FFF0
FFF0
FFF0
7FE0
3FC0
1F80
ENDCHAR
STARTCHAR quotesinglbase
ENCODING 8218
SWIDTH 428 0
DWIDTH 12 0
BBX 12 19 0 0
BITMAP
0600
3FC0
7FE0
FFF0
FFF0
FFF0
FFF0
FFF0
FFF0
FFF0
FFF0
F9F0
F9F0
FDF0
FFF0
FFF0
7FE0
3FC0
1F80
ENDCHAR
STARTCHAR quotedblleft
ENCODING 8220
SWIDTH 428 0
DWIDTH 12 0
BBX 12 19 0 0
BITMAP
0600
3FC0
76E0
F3F0
F2F0
FFF0
FFF0
FFF0
FFF0
FFF0
FFF0
FFF0
FFF0
FFF0
FFF0
FFF0
7FE0
3FC0
1F80
ENDCHAR
STARTCHAR quotedblright
ENCODING 8221
SWIDTH 428 0
DWIDTH 12 0
BBX 12 19 0 0
BITMAP
0600
3FC0
7260
FAF0
F6F0
FFF0
FFF0
FFF0
FFF0
FFF0
FFF0
FFF0
FFF0
FFF0
FFF0
FFF0
7FE0
3FC0
1F80
ENDCHAR
STARTCHAR quotedblbase
ENCODING 8222
SWIDTH 428 0
DWIDTH 12 0
BBX 12 19 0 0
BITMAP
0600
3FC0
7FE0
FFF0
FFF0
FFF0
FFF0
FFF0
FFF0
FFF0
FFF0
F270
F270
FAF0
FFF0
FFF0
7FE0
3FC0
1F80
ENDCHAR
STARTCHAR dagger
ENCODING 8224
SWIDTH 578 0
DWIDTH 16 0
BBX 16 19 0 0
BITMAP
07F0
3FFC
7F3E
FF3F
FC1F
FF3F
FF3F
FF3F
FF3F
FF3F
FF3F
FF3F
FF3F
FFFF
FFFF
FFFF
7FFE
3FFE
1FF8
ENDCHAR
STARTCHAR daggerdbl
ENCODING 8225
SWIDTH 578 0
DWIDTH 16 0
BBX 16 19 0 0
BITMAP
07F0
3FFC
7F3E
FF3F
FC1F
FF3F
FF3F
FF3F
FF3F
FC1F
FC1F
FF3F
FF3F
FFFF
FFFF
FFFF
7FFE
3FFE
1FF8
ENDCHAR
STARTCHAR bullet
ENCODING 8226
SWIDTH 578 0
DWIDTH 16 0
BBX 16 19 0 0
BITMAP
07F0
3FFC
7FFE
F80F
F807
F007
F007
F007
F007
F007
F807
F80F
FFFF
FFFF
FFFF
FFFF
7FFE
3FFE
1FF8
ENDCHAR
STARTCHAR ellipsis
ENCODING 8230
SWIDTH 578 0
DWIDTH 16 0
BBX 16 19 0 0
BITMAP
07F0
3FFC
7FFE
FFFF
FFFF
FFFF
FFFF
FFFF
FFFF
FFFF
FFFF
F64F
F64F
FFFF
FFFF
FFFF
7FFE
3FFE
1FF8
ENDCHAR
STARTCHAR perthousand
ENCODING 8240
SWIDTH 640 0
DWIDTH 18 0
BBX 18 19 0 0
BITMAP
07F800
3FFF00
46FF80
82FFC0
B2FFC0
84FFC0
C5FFC0
FDFFC0
F90840
F96B40
FB6B40
FB0840
FFFFC0
FFFFC0
FFFFC0
FFFFC0
7FFF80
3FFF00
1FFE00
ENDCHAR
STARTCHAR guilsinglleft
ENCODING 8249
SWIDTH 578 0
DWIDTH 16 0
BBX 16 19 0 0
BITMAP
07F0
3FFC
7FFE
FF9F
FFBF
FF7F
FE7F
FCFF
FDFF
FE7F
FF7F
FFBF
FF9F
FFFF
FFFF
FFFF
7FFE
3FFE
1FF8
ENDCHAR
STARTCHAR guilsinglright
ENCODING 8250
SWIDTH 578 0
DWIDTH 16 0
BBX 16 19 0 0
BITMAP
07F0
3FFC
7FFE
FCFF
FE7F
FF7F
FF3F
FF9F
FFDF
FFBF
FF7F
FE7F
FEFF
FFFF
FFFF
FFFF
7FFE
3FFE
1FF8
ENDCHAR
STARTCHAR fraction
ENCODING 8260
SWIDTH 428 0
DWIDTH 12 0
BBX 12 19 0 0
BITMAP
0600
3FC0
7DE0
FDF0
FDF0
FDF0
F9F0
F9F0
FBF0
FBF0
FBF0
FBF0
F3F0
FFF0
FFF0
FFF0
7FE0
3FC0
1F80
ENDCHAR
STARTCHAR Euro
ENCODING 8364
SWIDTH 578 0
DWIDTH 16 0
BBX 16 19 0 0
BITMAP
07F0
3FFC
701E
F3FF
F3FF
E07F
F3FF
F3FF
E07F
F3FF
F3FF
F01F
F80F
FFFF
FFFF
FFFF
7FFE
3FFE
1FF8
ENDCHAR
STARTCHAR trademark
ENCODING 8482
SWIDTH 578 0
DWIDTH 16 0
BBX 16 19 0 0
BITMAP
07F0
3FFC
7FFE
FFFF
FFFF
FFFF
F16F
FB4F
FBAF
FBAF
FFFF
FFFF
FFFF
FFFF
FFFF
FFFF
7FFE
3FFE
1FF8
ENDCHAR
STARTCHAR product
ENCODING 8719
SWIDTH 578 0
DWIDTH 16 0
BBX 16 19 0 0
BITMAP
07F0
3F7C
788E
F7F7
EC1B
DDCB
DDED
DDED
DC1D
DDFD
CDFB
EDFB
F7F7
F80F
FFFF
FFFF
7FFE
3FFE
1FF8
ENDCHAR
STARTCHAR minus
ENCODING 8722
SWIDTH 428 0
DWIDTH 12 0
BBX 12 19 0 0
BITMAP
0600
3FC0
7FE0
FFF0
FFF0
E070
FFF0
FFF0
FFF0
FFF0
FFF0
FFF0
FFF0
FFF0
FFF0
FFF0
7FE0
3FC0
1F80
ENDCHAR
STARTCHAR notequal
ENCODING 8800
SWIDTH 578 0
DWIDTH 16 0
BBX 16 19 0 0
BITMAP
07F0
3FFC
7FFE
FFBF
F00F
F10F
FE7F
F00F
FCFF
FDFF
FFFF
FFFF
FFFF
FFFF
FFFF
FFFF
7FFE
3FFE
1FF8
ENDCHAR
STARTCHAR uni2706
ENCODING 9990
SWIDTH 578 0
DWIDTH 16 0
BBX 16 19 0 0
BITMAP
07F0
3F7C
7FBE
FF5F
FEBF
FD6F
FAEF
F9FF
F9FF
F9FF
FCFF
FC5F
FE2F
FF9F
FFFF
FFFF
7FFE
3FFE
1FF8
ENDCHAR
STARTCHAR uni2708
ENCODING 9992
SWIDTH 578 0
DWIDTH 16 0
BBX 16 19 0 0
BITMAP
17F8
2224
41C2
8081
8081
8889
86F1
83E1
81C1
8081
8081
8081
8081
8001
8001
81C1
41C1
2006
1FF8
ENDCHAR
STARTCHAR uniF6D6
ENCODING 63190
SWIDTH 419 0
DWIDTH 12 0
BBX 12 9 0 1
BITMAP
3700
7F80
7F80
EDC0
ECE0
76E0
7F70
3B70
1FF0
ENDCHAR
STARTCHAR uFFFF2
ENCODING 1048562
SWIDTH 578 0
DWIDTH 16 0
BBX 16 19 0 0
BITMAP
17F8
2004
4082
8081
8081
8081
81C1
83E1
86B1
8889
8081
8181
8361
8001
8001
81C1
41C1
2006
1FF8
ENDCHAR
STARTCHAR uFFFF3
ENCODING 1048563
SWIDTH 578 0
DWIDTH 16 0
BBX 16 19 0 0
BITMAP
17F8
2084
4082
80C1
82A1
86B1
83E1
81C1
81C1
83E1
86B1
84A1
80C1
8081
8001
8001
4001
2006
1FF8
ENDCHAR
STARTCHAR uFFFF4
ENCODING 1048564
SWIDTH 578 0
DWIDTH 16 0
BBX 16 19 0 0
BITMAP
07F0
3FFC
7FFE
FF7F
FD5F
FB6F
F777
F777
F7F7
F3E7
FBEF
FC1F
FFFF
FFFF
FFFF
FFFF
7FFE
3FFE
1FF8
ENDCHAR
STARTCHAR uFFFF5
ENCODING 1048565
SWIDTH 578 0
DWIDTH 16 0
BBX 16 19 0 0
BITMAP
07F0
3FFC
7E3E
FF7F
FF7F
F777
F94F
FC1F
FE3F
FF7F
FF7F
FF7F
FF7F
FFFF
FFFF
FE3F
7E3E
3FFE
1FF8
ENDCHAR
STARTCHAR uFFFF6
ENCODING 1048566
SWIDTH 578 0
DWIDTH 16 0
BBX 16 19 0 0
BITMAP
07F0
3FFC
7F7E
FF7F
FF7F
FF7F
FE3F
FC1F
FB4F
FF77
FF7F
FE7F
FCBF
FFFF
FFFF
FE3F
7E3E
3FFE
1FF8
ENDCHAR
STARTCHAR uFFFF8
ENCODING 1048568
SWIDTH 578 0
DWIDTH 16 0
BBX 16 19 0 0
BITMAP
07F0
3FFC
7FFE
FCBF
FF7F
FC3F
F89F
FA6F
F76F
F00F
F00F
F80F
F81F
FE3F
FFFF
FE7F
7E7E
3FFE
1FF8
ENDCHAR
STARTCHAR uFFFF9
ENCODING 1048569
SWIDTH 578 0
DWIDTH 16 0
BBX 16 19 0 0
BITMAP
17F8
2004
4002
8081
82A1
8491
8899
8889
8809
8C19
8411
83E1
8001
8001
8001
8001
4001
2006
1FF8
ENDCHAR
STARTCHAR uFFFFB
ENCODING 1048571
SWIDTH 578 0
DWIDTH 16 0
BBX 16 19 0 0
BITMAP
07F0
3FFC
7F7E
FF3F
FB5F
F95F
FC3F
FE7F
FC3F
F95F
FB5F
FF3F
FF7F
FFFF
FFFF
FFFF
7FFE
3FFE
1FF8
ENDCHAR
STARTCHAR uFFFFC
ENCODING 1048572
SWIDTH 578 0
DWIDTH 16 0
BBX 16 19 0 0
BITMAP
07F0
3FFC
7C1E
F1C7
EF73
F80F
F7E7
FC1F
FBFF
FE7F
FE3F
FFFF
FFFF
FFFF
FFFF
FFFF
7FFE
3FFE
1FF8
ENDCHAR
STARTCHAR uFFFFD
ENCODING 1048573
SWIDTH 578 0
DWIDTH 16 0
BBX 16 19 0 0
BITMAP
07F0
3FFC
7E7E
F81F
F80F
F00F
F00F
F76F
FA6F
F89F
FC3F
FE7F
FDBF
FF7F
FFFF
FE7F
7E7E
3FFE
1FF8
ENDCHAR
STARTCHAR uFFFFE
ENCODING 1048574
SWIDTH 578 0
DWIDTH 16 0
BBX 16 19 0 0
BITMAP
07F0
3FFC
7FFE
E083
EEBB
EEBB
F1BB
EEBB
EEBB
EEBB
E187
FFFF
FFFF
FFFF
FFFF
FFFF
7FFE
3FFE
1FF8
ENDCHAR
STARTCHAR uFFFFF
ENCODING 1048575
SWIDTH 578 0
DWIDTH 16 0
BBX 16 19 0 0
BITMAP
17F8
2004
4182
87E1
87F1
8FF1
8FF1
8D91
8591
8761
83E1
83C1
83C1
8081
8001
81C1
4181
2006
1FF8
ENDCHAR
STARTCHAR .notdef
ENCODING -1
SWIDTH 1000 0
DWIDTH 28 0
BBX 1 1 0 0
BITMAP
00
ENDCHAR
STARTCHAR glyph1
ENCODING -1
SWIDTH 0 0
DWIDTH 0 0
BBX 1 1 0 0
BITMAP
00
ENDCHAR
ENDFONT
